<svg width="187" height="37" viewBox="0 0 187 37" fill="none" xmlns="http://www.w3.org/2000/svg">
<path d="M6.16484 5.87537C6.16484 7.09622 5.17542 8.08817 3.88156 8.08817C2.58771 8.08817 1.59829 7.09623 1.59829 5.95167C1.59829 2.59432 5.09931 -1.45537e-07 10.3508 -1.45537e-07C15.8307 -1.45537e-07 19.7123 3.50996 19.7123 7.85926V21.0598C19.7123 22.8147 21.0822 24.3408 22.7566 24.646C22.9088 24.646 23.0611 24.7986 23.0611 24.9512V25.4854C23.0611 25.638 22.9088 25.7906 22.7566 25.7906C20.7778 25.7143 18.9512 24.9512 17.6573 23.6541C15.8307 25.4091 13.0147 26.1721 9.89418 26.1721C4.41433 26.1721 0 23.883 0 19.5337C0 16.4053 2.35938 14.8029 3.80545 14.0398C5.40374 13.2005 7.76313 12.5138 9.58974 11.7507C12.4819 10.5299 15.2218 9.38533 15.2218 7.09623V5.72276C15.2218 3.20475 13.4713 1.14455 10.5031 1.14455C7.99145 1.22086 6.16484 3.43366 6.16484 5.87537ZM15.1457 10.6825C13.6996 11.5218 11.9491 12.2849 10.1986 12.9716C7.30647 14.1925 4.56654 16.7105 4.56654 19.5337C4.56654 22.891 6.39316 24.8749 9.89418 24.8749C13.0147 24.8749 15.2218 22.891 15.2218 19.9915V10.6825H15.1457Z" transform="translate(0 10.8278)" fill="#1D1D1D"/>
<path d="M14.5368 1.37346C14.2324 1.67868 14.0041 1.98389 13.7757 2.36541C13.6996 2.51802 13.4713 2.51801 13.3952 2.44171C12.4819 1.83128 11.1119 1.29716 9.97029 1.29716C7.00203 1.22086 4.56654 3.43366 4.56654 6.10428V25.7143C4.56654 26.0195 4.26211 26.2484 3.95767 26.2484H0.608872C0.304436 26.2484 0 26.0195 0 25.7143V8.01187C0 3.58626 4.41433 2.91075e-07 9.89418 2.91075e-07C11.5686 2.91075e-07 13.0908 0.381518 14.4607 0.915642C14.6129 0.991946 14.6891 1.22086 14.5368 1.37346Z" transform="translate(28.541 10.7514)" fill="#1D1D1D"/>
<path d="M16.1351 36.4659C15.4501 36.6185 14.7652 36.6185 14.0041 36.6185C8.52422 36.6185 4.10989 33.0322 4.10989 28.6066V13.7274H0.304437C0.152219 13.7274 0 13.5748 0 13.4222V12.6592C0 12.5066 0.152219 12.354 0.304437 12.354H4.10989V2.053C4.10989 1.82409 4.26211 1.59518 4.49044 1.51887C5.70818 1.28996 6.84982 0.832143 7.91534 0.0691076C8.21978 -0.159803 8.67644 0.221715 8.67644 0.603232V12.4303H12.8624C13.0147 12.4303 13.1669 12.5829 13.1669 12.7355V13.4985C13.1669 13.6511 13.0147 13.8037 12.8624 13.8037H8.75254V30.5142C8.75254 33.1085 11.188 35.3213 14.1563 35.3213C14.6129 35.3213 15.1457 35.1687 15.6785 35.0161C15.8307 34.9398 15.9829 35.0161 15.9829 35.1687L16.2873 36.0844C16.4396 36.237 16.2873 36.3896 16.1351 36.4659Z" transform="translate(48.3293 0.381531)" fill="#1D1D1D"/>
<path d="M19.7123 18.9996C19.7123 23.0437 15.0696 26.2484 9.89418 26.2484C4.41433 26.2484 0 22.7384 0 17.2446V9.00381C0 3.50996 4.41433 -1.45537e-07 9.89418 -1.45537e-07C15.0696 -1.45537e-07 19.7123 3.12844 19.7123 7.24883C19.7123 8.46969 18.7228 9.46163 17.429 9.46163C16.1351 9.46163 15.1457 8.46969 15.1457 7.24883C15.1457 7.24883 15.1457 5.79907 15.1457 5.57016C14.9935 3.12844 12.6341 1.29716 9.81807 1.29716C6.31705 1.29716 4.49044 3.58626 4.49044 7.55405V18.6944C4.49044 22.5095 6.39316 24.9512 9.81807 24.9512C12.6341 24.9512 14.9174 23.0437 15.1457 20.6782C15.1457 20.5256 15.1457 19.0759 15.1457 18.9996C15.1457 17.7787 16.1351 16.7868 17.429 16.7868C18.7228 16.7868 19.7884 17.7787 19.7123 18.9996Z" transform="translate(69.2593 10.4463)" fill="#1D1D1D"/>
<path d="M9.89418 35.9318V36.3133C9.89418 36.5422 9.66586 36.7711 9.43753 36.7711C4.186 36.6185 1.16133e-06 33.1085 1.16133e-06 28.7592V2.053C1.16133e-06 1.82409 0.152219 1.59518 0.380547 1.51887C1.59829 1.28996 2.73992 0.832143 3.80545 0.0691076C4.10989 -0.159803 4.56654 0.221715 4.56654 0.603232V30.6668C4.56654 33.1848 6.7737 35.245 9.51363 35.4739C9.74196 35.3976 9.89418 35.6265 9.89418 35.9318Z" transform="translate(96.2019)" fill="#1D1D1D"/>
<path d="M4.56654 0.611969V25.7158C4.56654 26.021 4.26211 26.3262 3.95767 26.3262H0.684977C0.380541 26.3262 0.0761137 26.021 0.0761137 25.7158L0 2.06173C0 1.83282 0.152218 1.60391 0.380545 1.52761C1.59829 1.2987 2.73993 0.840879 3.80545 0.0778442C4.10989 -0.151066 4.56654 0.154147 4.56654 0.611969Z" transform="translate(111.5 10.4448)" fill="#1D1D1D"/>
<path d="M20.7017 8.01187V25.7906C20.7017 26.0958 20.3972 26.3247 20.0928 26.3247H16.744C16.4396 26.3247 16.1351 26.0958 16.1351 25.7906V6.18058C16.1351 3.58626 13.7757 1.37346 10.8075 1.37346H9.97029C7.00204 1.29716 4.56654 3.50996 4.56654 6.18058V25.7906C4.56654 26.0958 4.26211 26.3247 3.95768 26.3247H0.60887C0.304434 26.3247 -4.64533e-06 26.0958 -4.64533e-06 25.7906V8.01187C-4.64533e-06 3.58626 4.41432 -1.45537e-07 9.89418 -1.45537e-07H10.8075C16.2873 -1.45537e-07 20.7017 3.58626 20.7017 8.01187Z" transform="translate(124.743 10.4463)" fill="#1D1D1D"/>
<path d="M4.56654 0.611969V25.7158C4.56654 26.021 4.26211 26.3262 3.95767 26.3262H0.684977C0.380541 26.3262 0.0761137 26.021 0.0761137 25.7158L0 2.06173C0 1.83282 0.152218 1.60391 0.380545 1.52761C1.59829 1.2987 2.73993 0.840879 3.80545 0.0778442C4.10989 -0.151066 4.56654 0.154147 4.56654 0.611969Z" transform="translate(154.121 10.4448)" fill="#1D1D1D"/>
<path d="M19.7122 18.9996C19.7122 23.0437 15.0696 26.2484 9.89418 26.2484C4.41433 26.2484 2.32266e-06 22.7384 2.32266e-06 17.2446V9.00381C2.32266e-06 3.50996 4.41433 -1.45537e-07 9.89418 -1.45537e-07C15.0696 -1.45537e-07 19.7122 3.12844 19.7122 7.24883C19.7122 8.46969 18.7228 9.46163 17.429 9.46163C16.1351 9.46163 15.1457 8.46969 15.1457 7.24883C15.1457 7.24883 15.1457 5.79907 15.1457 5.57016C14.9935 3.12844 12.6341 1.29716 9.81807 1.29716C6.31705 1.29716 4.49043 3.58626 4.49043 7.55405V18.6944C4.49043 22.5095 6.39316 24.9512 9.81807 24.9512C12.6341 24.9512 14.9174 23.0437 15.1457 20.6782C15.1457 20.5256 15.1457 19.0759 15.1457 18.9996C15.1457 17.7787 16.1351 16.7868 17.429 16.7868C18.7228 16.7868 19.7122 17.7787 19.7122 18.9996Z" transform="translate(167.288 10.4463)" fill="#1D1D1D"/>
<path d="M2.35938 4.73082C3.66243 4.73082 4.71876 3.67179 4.71876 2.36541C4.71876 1.05903 3.66243 0 2.35938 0C1.05633 0 -2.32266e-06 1.05903 -2.32266e-06 2.36541C-2.32266e-06 3.67179 1.05633 4.73082 2.35938 4.73082Z" transform="translate(111.271 2.05289)" fill="#1D1D1D"/>
<path d="M2.35939 4.73082C3.66244 4.73082 4.71876 3.67179 4.71876 2.36541C4.71876 1.05903 3.66244 0 2.35939 0C1.05634 0 0 1.05903 0 2.36541C0 3.67179 1.05634 4.73082 2.35939 4.73082Z" transform="translate(154.121 2.05289)" fill="#1D1D1D"/>
</svg>
