<svg width="371" height="420" viewBox="0 0 371 420" fill="none" xmlns="http://www.w3.org/2000/svg">
<path d="M55.8114 166.256C56.1114 166.056 56.1114 165.656 55.8114 165.456C52.9114 163.056 49.7114 161.056 46.7114 158.756C44.4114 156.956 38.4114 152.756 38.6114 148.656C44.0114 152.956 50.7114 154.056 57.3114 154.456C57.6114 154.456 57.7114 154.256 57.7114 153.956C59.5114 142.356 60.9114 130.656 62.7114 119.056C62.9114 118.856 61.2114 118.656 61.2114 118.656C57.4114 119.456 53.8114 118.556 50.4114 116.756C51.7114 116.456 53.0114 116.056 54.4114 115.556C56.4114 114.856 59.0114 113.456 61.0114 113.956C61.3114 114.056 61.5114 113.956 61.7114 113.756C61.9114 113.756 62.0114 113.556 62.2114 113.456C62.3114 113.356 62.4114 113.256 62.4114 113.156C62.6114 112.956 62.6114 112.756 62.5114 112.556C62.6114 112.556 62.7114 112.456 62.7114 112.256C64.4114 104.456 65.1114 96.1555 65.4114 88.1555C65.6114 83.7555 65.5114 79.2556 65.0114 74.8556C64.6114 71.2556 62.9114 64.3556 62.9114 64.3556C63.2114 64.1556 61.9114 63.8556 61.7114 63.9556C59.3114 64.6556 56.8114 64.9556 54.3114 65.5556C56.4114 63.7556 58.2114 61.5556 60.5114 60.0556C60.6114 59.9556 60.7114 59.8555 60.8114 59.7556C60.9114 59.6556 61.0114 59.5556 61.1114 59.4556C61.3114 59.4556 61.5114 58.6556 61.5114 58.5556C61.7114 58.2556 60.3114 49.1556 59.8114 44.7556C59.2114 40.0555 58.1114 35.4556 57.7114 30.8556C57.6114 30.2556 56.5114 30.0556 56.3114 29.9556L56.1114 29.8556H56.0114H55.9114H55.8114H55.5114C55.3114 29.7556 55.0114 29.8556 54.8114 29.9556C52.5114 30.3556 50.3114 31.5556 48.1114 31.6556C49.1114 30.9556 49.9114 30.1556 50.8114 29.2556C51.8114 28.2556 55.9114 25.4556 55.8114 25.0556C56.0114 24.9556 56.1114 24.7556 56.0114 24.5556C55.2114 21.1556 53.9114 17.8556 53.1114 14.4556C52.2114 10.7556 50.8114 5.05555 52.6114 1.25555C53.0114 0.455549 52.3114 0.0555586 51.7114 0.155559C51.3114 -0.144441 50.8114 -0.0444506 50.6114 0.755549C50.2114 2.25555 47.9114 4.15556 46.9114 5.15556C45.6114 6.55556 44.2114 7.95556 43.0114 9.35556C41.4114 11.2556 36.6114 16.3556 37.9114 16.9556C39.6114 17.7556 40.2114 21.2556 40.8114 22.9556C41.2114 24.4556 41.7114 25.8556 42.3114 27.1556C38.7114 24.9556 32.8114 19.0555 33.0114 19.2556C32.9114 19.3556 32.8114 19.4556 32.8114 19.6556C31.9114 22.6556 29.7114 25.6556 28.3114 28.5556C26.8114 31.6556 25.4114 34.7556 23.7114 37.7556C23.6114 37.9556 23.7114 38.2556 23.8114 38.3556C27.6114 39.8556 30.7114 42.4556 33.6114 45.4556C30.3114 45.6556 26.3114 44.9556 23.4114 43.1556C23.4114 43.0556 23.3114 42.9556 23.2114 42.9556H23.0114L22.8114 42.8556C22.6114 42.6556 22.4114 42.5556 22.2114 42.3556C21.8114 42.0556 21.4114 42.8556 21.7114 43.1556L21.8114 43.2556C21.6114 43.5555 21.5114 43.8556 21.5114 44.1556C21.5114 44.2556 21.5114 44.3556 21.5114 44.4556V44.5556C20.9114 49.6556 17.9114 54.8556 16.0114 59.4556C14.3114 63.6556 12.6114 67.8555 11.2114 72.1555C8.01137 81.7555 6.61139 92.0555 5.51139 102.156C5.51139 102.256 5.61139 102.456 5.71139 102.456C10.8114 105.456 16.6114 106.656 22.0114 108.956C16.1114 112.056 3.91138 110.656 3.91138 110.756C4.21138 112.756 3.61138 115.156 3.41138 117.156C3.31138 118.856 3.11139 120.556 3.01139 122.256C2.81139 126.256 2.71138 130.156 2.61138 134.156C2.41138 142.856 1.91139 151.456 1.01139 160.156C0.711389 160.456 0.511389 161.056 1.01139 161.356C0.911389 161.956 0.811377 162.456 0.811377 163.056C0.511377 163.356 0.211377 163.756 0.311377 164.156C0.311377 164.456 0.711389 164.756 1.01139 164.656C3.81139 163.056 7.41138 162.756 10.4114 162.256C12.8114 161.856 15.3114 161.656 17.7114 161.356C12.4114 164.156 7.41139 167.156 1.51139 168.156C1.11139 167.456 -0.588614 168.356 0.211386 169.256C1.51139 170.956 2.11139 173.956 3.21139 175.856C4.41139 177.956 5.81139 179.956 7.21139 181.856C9.01139 184.456 10.9114 187.056 12.3114 189.956H38.3114C40.7114 187.356 43.1114 184.856 45.1114 181.756C48.3114 176.356 50.9114 169.956 55.8114 166.256Z" transform="translate(246 230)" fill="#F2F2F2"/>
<path d="M0.804944 7.2H0.604963C0.00496256 7.2 -0.29505 8.1 0.40495 8.4C8.60495 10.9 17.805 11.9 26.405 12.5C29.305 12.7 32.2049 12.8 35.2049 12.8C40.1049 12.8 44.9049 12.6 49.8049 12.3C53.0049 12.1 57.5049 12 61.9049 11.3V9.1C58.4049 9.7 54.7049 9.9 51.9049 10C51.1049 10 50.4049 10.1 49.7049 10.1C45.1049 10.4 40.2049 10.6 35.2049 10.6C32.1049 10.6 29.305 10.5 26.605 10.3C20.405 9.8 12.6049 9.1 5.30494 7.4C9.30494 5.7 16.205 2.8 20.405 1.9C24.405 1 28.5049 0.6 32.9049 0.6C34.5049 0.6 36.1049 0.7 37.8049 0.8C42.2049 1.1 46.705 1.6 51.005 2.2C53.005 2.4 55.005 2.7 57.105 2.9C58.705 3.1 60.305 3.3 61.9049 3.5V1.5C60.4049 1.3 58.8049 1.1 57.3049 0.9C54.8049 0.6 52.3049 0.3 49.8049 -1.49012e-09H19.7049C13.2049 1.6 1.30494 7.2 0.804944 7.2Z" transform="translate(308.395)" fill="#EAEAEA"/>
<path d="M99.305 3.8C98.405 5.5 97.5049 7.2 96.6049 8.9C90.6049 7.8 84.7049 6 78.6049 6C73.1049 6 67.5049 7 62.1049 8.2C50.4049 10.8 22.105 18.7 19.305 19C18.405 19.1 18.405 20.5 19.305 20.5C19.505 20.5 19.7049 20.5 20.0049 20.5C20.8049 20.5 21.9049 20.5 23.0049 20.5C24.2049 20.5 25.2049 20.5 25.6049 20.4C36.4049 20.5 47.3049 21.6 58.1049 21.6C59.7049 21.6 61.305 21.6 62.805 21.5C69.105 21.3 75.4049 20.4 81.5049 18.9C84.4049 18.2 87.3049 17.3 90.0049 16.1C91.4049 15.4 92.605 14.6 93.805 13.7V14C90.805 19.3 87.705 24.6 84.405 29.7C84.205 29.5 83.9049 29.4 83.6049 29.4C83.5049 29.3 83.3049 29.2 83.1049 29.2C82.9049 29.2 82.7049 29.3 82.6049 29.4C81.6049 29.4 80.505 29.6 79.805 29.7C76.905 29.9 74.1049 30.3 71.2049 30.6C65.2049 31.1 59.205 31.3 53.205 32.1C42.205 33.6 31.205 36.5 20.705 40.3C19.5049 40.5 18.305 40.7 17.205 41C16.405 41.2 16.3049 42.6 17.1049 42.6H17.305C17.605 42.5 20.505 42.3 21.305 42.1C22.205 42 23.2049 42 24.1049 42C28.1049 42 32.1049 42.5 36.1049 42.9C40.2049 43.3 44.4049 43.5 48.5049 43.5C50.5049 43.5 52.6049 43.4 54.6049 43.3C63.7049 42.6 72.7049 39.9 80.7049 35.3C77.2049 40.6 73.5049 45.8 69.6049 50.8C69.0049 50.7 68.4049 50.7 67.7049 50.7C63.4049 50.7 59.1049 52.3 55.0049 53.1C48.7049 54.5 42.4049 55.7 36.1049 56.8C30.0049 57.9 23.905 58.9 17.905 60.3C15.305 60.9 12.6049 61.6 10.1049 62.4C7.40494 63.3 1.00495 65.6 0.70495 65.6H0.604944C0.00494426 65.6 -0.295037 66.5 0.404963 66.6C2.90496 66.9 8.20494 68 8.50494 68.1C13.5049 68.6 18.6049 68.9 23.705 68.9C29.505 68.9 35.3049 68.5 41.0049 67.5C45.9049 66.6 50.705 65.3 55.205 63C58.905 61.1 62.1049 58.1 65.6049 55.8C60.7049 61.8 49.505 72.8 49.205 72.9C45.905 73.4 42.605 73.1 39.305 73.3C35.705 73.4 32.2049 74.4 28.705 75.4C25.6049 76.3 22.5049 77.4 19.5049 78.5C15.5049 80.1 6.40496 84.4 6.30496 84.8C5.60496 84.9 5.30495 86.1 6.20495 86.2C6.40495 86.2 6.70496 86.2 6.90496 86.2C7.00496 86.3 9.40495 86.4 12.705 86.4C18.005 86.4 25.705 86.1 30.205 84.8C35.6049 83.3 40.705 80.8 45.305 77.6C45.105 78.1 43.3049 89.2 43.1049 94.4C43.0049 97.6 43.1049 100.8 43.6049 104C43.9049 106 44.305 107.9 44.905 109.8C45.405 111.6 46.9049 113.9 47.0049 115.7C47.0049 116.7 47.5049 117 48.1049 117C48.5049 117 49.005 116.8 49.305 116.5C49.705 116.2 49.9049 115.8 49.6049 115.1C48.0049 111.6 49.705 105.1 49.905 101.4C50.205 97.2 50.705 93 51.205 88.8C51.805 84.6 52.4049 79.7 49.5049 76.1C56.5049 69.6 62.905 62.5 68.805 55C67.605 63.9 67.5049 73 68.0049 82C68.3049 86.5 68.705 90.9 69.405 95.4C69.905 99.1 71.705 111.2 72.405 111.2C73.405 111.2 74.405 96.9 74.905 91.6C75.305 86.3 75.7049 80.9 75.7049 75.6C75.7049 67.6 74.805 59.7 70.305 52.9C74.405 47.6 78.205 42.1 81.905 36.5C82.205 38.9 82.9049 41.4 83.2049 43.7C83.9049 48.4 84.805 53.1 85.805 57.8C87.905 67 90.7049 76.1 93.6049 85.1C93.7049 85.5 94.605 88.2 94.805 89.7C94.805 89.9 95.005 90 95.305 90C95.605 90 95.905 89.8 95.905 89.5C94.805 78.7 98.0049 67.9 96.5049 57.1C95.8049 52.4 94.1049 48 92.0049 43.9C89.9049 39.8 87.105 36.1 84.805 32.2V32C87.905 27 90.905 21.9 93.805 16.7C94.305 20.3 95.1049 23.8 96.5049 27.1C97.7049 29.9 99.305 32.6 100.905 35.3V31.4C100.005 29.8 99.105 28.1 98.405 26.4C97.005 23 96.305 19.5 95.805 16.5C95.705 16 95.4049 15.5 95.0049 15.2L95.1049 15C95.3049 14.6 95.405 14.2 95.305 13.8V13.7V13.6C95.205 12.9 94.7049 12.3 94.1049 12C93.9049 11.9 93.605 11.8 93.305 11.8C92.905 11.8 92.4049 11.9 92.1049 12.2C90.9049 13.1 89.8049 13.8 88.7049 14.4C86.505 15.4 84.0049 16.3 80.6049 17.1C74.6049 18.6 68.405 19.4 62.305 19.6C60.805 19.7 59.3049 19.7 57.6049 19.7C52.1049 19.7 46.405 19.4 40.905 19.1C37.105 18.9 33.205 18.7 29.305 18.6C31.605 18 34.205 17.3 37.205 16.5C46.1049 14.2 56.2049 11.5 62.0049 10.2C66.4049 9.2 72.3049 8.1 78.1049 8.1C82.3049 8.1 86.3049 9 90.6049 9.9C92.2049 10.2 93.9049 10.6 95.6049 10.9C95.8049 11.6 96.3049 12.1 97.0049 12.3C98.4049 12.7 99.705 13.5 100.905 14.6V12C99.905 11.3 98.8049 10.7 97.6049 10.4C97.6049 10.2 97.7049 10 97.6049 9.8C98.7049 7.7 99.805 5.6 100.905 3.5V0C100.605 1.3 99.905 2.6 99.305 3.8ZM49.5049 88.4C48.9049 93.1 48.4049 97.3 48.1049 101.1C48.0049 102 47.905 103.2 47.705 104.4C47.505 106.1 47.2049 107.9 47.1049 109.7C47.0049 109.5 46.905 109.3 46.905 109.1C46.405 107.3 45.9049 105.5 45.6049 103.6C45.2049 100.7 45.0049 97.6 45.1049 94.4C45.3049 89.5 47.005 79.1 47.205 78.1C47.405 77.3 47.2049 76.4 46.5049 75.9C46.1049 75.6 45.705 75.5 45.305 75.5C44.905 75.5 44.5049 75.6 44.1049 75.9C39.7049 79.1 34.805 81.4 29.705 82.8C26.405 83.7 20.005 84.3 12.705 84.3C12.205 84.3 11.705 84.3 11.305 84.3C14.105 82.9 17.905 81.2 20.305 80.2C23.505 78.9 26.405 77.9 29.305 77.1C32.405 76.2 36.005 75.3 39.405 75.1C40.505 75.1 41.605 75 42.705 75C44.405 75 46.2049 75 48.0049 74.8C47.5049 75.5 47.6049 76.5 48.1049 77.1C50.5049 80 50.1049 83.9 49.5049 88.4ZM68.7049 53C68.3049 53.1 67.8049 53.3 67.6049 53.7C67.4049 53.9 67.3049 54.1 67.1049 54.3C66.7049 53.9 66.2049 53.7 65.7049 53.7C65.3049 53.7 64.9049 53.8 64.6049 54C63.2049 54.9 61.9049 55.9 60.6049 56.9C58.5049 58.5 56.505 60 54.405 61.1C50.505 63.1 46.205 64.5 40.805 65.4C35.505 66.3 29.905 66.8 23.805 66.8C19.105 66.8 14.205 66.5 8.90496 66C8.70496 66 8.20494 65.9 7.50494 65.7C7.30494 65.7 7.00495 65.6 6.70495 65.5C8.20495 65 9.80496 64.4 10.805 64.1C13.605 63.2 16.3049 62.5 18.5049 62C23.1049 60.9 27.805 60.1 32.405 59.3C33.805 59.1 35.2049 58.8 36.6049 58.6C43.2049 57.4 49.6049 56.2 55.6049 54.9C56.8049 54.6 58.105 54.3 59.305 54C62.205 53.3 65.105 52.5 67.905 52.5C68.205 52.5 68.505 52.5 68.805 52.5C68.705 52.8 68.7049 52.9 68.7049 53ZM70.805 57.2C73.605 63.2 74.0049 69.7 74.0049 75.5C74.0049 80.1 73.7049 84.9 73.2049 91.3C73.1049 91.9 73.1049 92.6 73.0049 93.4C72.9049 95 72.705 97.6 72.405 100.3C72.205 98.9 71.9049 97.3 71.7049 95.5L71.6049 94.9C71.0049 90.5 70.505 86.1 70.2049 81.7C69.8049 73.1 70.005 64.9 70.805 57.2ZM86.5049 38.1C87.9049 40.3 89.4049 42.5 90.6049 44.8C93.0049 49.6 94.405 53.6 94.905 57.4C95.705 62.8 95.2049 68.1 94.7049 73.8C94.505 75.6 94.405 77.4 94.305 79.2C92.105 72.1 89.9049 64.7 88.2049 57.3C87.1049 52.5 86.3049 47.5 85.6049 43.3C85.4049 42.2 85.2049 41.1 85.0049 40.1C84.7049 38.8 84.505 37.5 84.305 36.2C84.205 35.4 83.605 34.7 82.805 34.5C82.705 34.2 82.605 34 82.405 33.8C82.005 33.4 81.505 33.2 80.905 33.2C80.605 33.2 80.205 33.3 79.905 33.5C72.205 37.9 63.505 40.5 54.705 41.2C52.805 41.3 50.805 41.4 48.705 41.4C45.105 41.4 41.405 41.2 36.405 40.8C35.405 40.7 34.405 40.6 33.405 40.5C31.605 40.3 29.705 40.1 27.805 40C36.705 37.2 45.3049 35.2 53.5049 34.1C57.5049 33.6 61.6049 33.3 65.6049 33C67.5049 32.9 69.405 32.7 71.405 32.6C72.805 32.5 74.2049 32.3 75.6049 32.2C77.0049 32 78.5049 31.9 80.0049 31.8C80.4049 31.8 80.7049 31.7 81.1049 31.7C81.6049 31.6 82.2049 31.5 82.7049 31.5C82.9049 31.5 83.005 31.5 83.2049 31.4H83.305C83.305 31.5 83.2049 31.7 83.2049 31.8C83.1049 32.3 83.205 32.7 83.405 33.2C84.305 34.9 85.4049 36.5 86.5049 38.1Z" transform="translate(269.095 31.1001)" fill="#EAEAEA"/>
<path d="M43.1993 0.21157C36.4993 0.31157 29.8993 0.311571 23.1993 0.811571C20.0993 1.01157 16.9994 1.31157 13.8994 1.81157C11.8994 2.11157 8.39935 3.31157 5.69935 3.31157C4.49935 3.31157 3.39937 3.11157 2.59937 2.51157C2.49937 2.41157 2.39935 2.41157 2.19935 2.41157C1.19935 2.41157 -0.600652 4.61157 0.199348 4.71157C13.4993 6.51157 26.7994 9.81157 40.2994 10.4116C41.6994 10.5116 43.0994 10.5116 44.4994 10.5116C49.0994 10.5116 53.5994 10.2116 58.0994 9.41157C61.0994 8.91157 64.0994 8.21157 66.9994 7.41157C68.0994 7.11157 69.6993 6.31157 71.1993 5.71157V3.61157C70.4994 3.91157 69.7994 4.21157 69.0994 4.51157C68.0994 4.91157 67.0994 5.31157 66.3994 5.51157C63.5994 6.31157 60.6993 6.91157 57.6993 7.41157C53.4993 8.11157 48.9994 8.51157 44.3994 8.51157C42.9994 8.51157 41.5994 8.51157 40.2994 8.41157C31.6994 8.01157 22.8994 6.51157 14.4994 5.01157C13.4994 4.81157 12.4994 4.61157 11.3994 4.51157C11.5994 4.51157 11.6994 4.41157 11.7994 4.41157C12.6994 4.21157 13.4994 4.01157 14.0994 3.91157C17.0994 3.41157 20.1993 3.21157 23.1993 3.01157C29.9993 2.51157 36.8994 2.51157 42.9994 2.41157C45.3994 2.41157 47.8994 2.31157 50.2994 2.21157C52.9994 2.11157 55.8994 2.01157 58.5994 2.01157C63.6994 2.01157 67.5993 2.41157 71.1993 3.21157V1.21157C67.0993 0.31157 62.8994 0.11157 58.5994 0.11157C53.5994 -0.18843 48.2993 0.21157 43.1993 0.21157Z" transform="translate(298.901 21.8887)" fill="#EAEAEA"/>
<path d="M0.380506 6.7C1.18051 10.5 3.08052 14 5.08052 17.3C10.5805 26.4 18.4805 33.7 20.1805 44.6C20.2805 45.5 21.6805 45 21.5805 44.2C21.2805 41.5 16.6805 25.2 15.1805 20.3C13.8805 15.9 12.5805 11.5 11.0805 7.3C10.2805 5 9.18049 2.3 7.68049 -1.49012e-09H0.580518C0.380518 0.6 0.180518 1.2 0.0805184 1.7C-0.119482 3.4 0.0805061 5.1 0.380506 6.7Z" transform="translate(338.42)" fill="#F2F2F2"/>
<path d="M92.8372 13.7C95.5371 14.1 98.3371 14.3 101.037 14.3C102.637 14.3 105.237 13.8 107.237 13.8C105.337 15.8 103.437 17.8 101.437 19.8C100.237 21 98.9371 22.3 97.7371 23.5C92.8371 21 88.2372 17.9 82.9372 16.3C78.2372 14.9 73.1371 14.2 68.2371 13.9C57.5371 13.1 31.1371 12.4 28.7371 12C27.9371 11.8 27.5372 13.1 28.3372 13.3C29.2372 13.5 33.0371 14.8 33.7371 14.9C44.3371 18.2 54.6372 22.7 65.4372 25.6C70.9372 27.1 76.5371 27.9 82.2371 28.3C84.9371 28.4 87.6371 28.5 90.2371 28.1C91.6371 27.9 92.8371 27.5 94.1371 27V27.2C90.1371 31 86.1371 34.7 82.0371 38.3C81.9371 38.1 81.7372 38 81.4372 37.9C81.2372 37.6 80.9371 37.5 80.6371 37.6C79.7371 37.4 78.8371 37.3 78.1371 37.1C75.6371 36.5 73.0371 36.2 70.5371 35.6C65.2371 34.5 60.0371 33.1 54.7371 32.2C44.8371 30.6 34.6371 30.3 24.7371 30.7C23.6371 30.5 22.6371 30.4 21.5371 30.4C20.7371 30.4 20.3371 31.7 21.2371 31.8C21.4371 31.8 24.0372 32.4 24.8372 32.4C29.1371 33.4 33.2371 35.3 37.4371 37C42.6371 39.1 47.8371 41 53.2371 42.2C61.2371 44 69.6371 44 77.6371 42.2C73.2371 45.8 68.7371 49.3 64.0371 52.6C60.0371 50.8 55.2372 51.2 50.9372 50.8C45.1372 50.3 39.4371 49.7 33.7371 49.1C28.2371 48.5 22.7371 47.7 17.2371 47.3C14.8371 47.1 12.4371 47 9.93714 47.1C7.43714 47.1 1.23715 47.5 1.03715 47.4C0.537147 47.2 -0.0628529 47.9 0.537147 48.2C2.63715 49.2 6.83714 51.4 7.13714 51.6C16.1371 55.4 25.5371 58.4 35.1371 59.6C39.6371 60.1 44.0372 60.2 48.4372 59.4C52.1372 58.7 55.6371 57 59.2371 55.9C53.4371 59.8 47.4371 63.4 41.1371 66.6C41.0371 66.4 40.9371 66.3 40.7371 66.2C37.7371 65.7 35.0371 64.7 32.1371 63.9C29.0371 63.1 25.7371 63 22.5371 62.9C19.6371 62.9 16.7372 63 13.8372 63.2C10.0372 63.5 1.03715 64.9 0.83715 65.2C0.13715 65.1 -0.36285 66.1 0.33715 66.4C0.53715 66.5 14.5371 71.4 21.2371 71.5C26.3371 71.6 31.3371 70.8 36.0371 69.2C35.7371 69.6 35.8371 70.1 36.1371 70.5C33.4371 74.3 31.3372 78.7 29.8372 83.1C28.9372 85.8 28.2371 88.6 27.7371 91.5C27.5371 93.3 27.3372 95 27.3372 96.8C27.3372 98.5 28.5372 104.1 29.3372 103.7C29.7372 103.6 30.1371 103.2 30.0371 102.6C29.6371 99.2 32.6371 94.1 33.9371 90.9C35.3371 87.3 36.8372 83.9 38.3372 80.4C39.9371 76.9 41.7371 72.9 40.2371 69.1C47.9371 65.3 55.2372 60.9 62.3372 56C59.0372 63.4 56.5371 71.1 54.6371 79C53.7371 82.9 52.9371 86.9 52.3372 90.8C51.8372 94.1 50.5371 101.8 51.1371 102C51.7371 102.2 56.2371 93.5 58.0371 89C59.8371 84.5 61.5372 80.1 62.9372 75.5C65.0372 68.6 66.3371 61.6 64.2371 54.6C69.1371 51.1 73.8372 47.4 78.4372 43.6C78.0372 45.8 78.0371 48 77.7371 50.1C77.1371 54.3 76.6372 58.6 76.3372 62.9C75.7372 71.4 75.7372 79.9 75.8372 88.4C75.8372 88.8 75.9371 91.3 75.7371 92.7C75.6371 93.2 76.6371 93.3 76.7371 92.8C78.5371 83.2 84.2371 74.8 85.7371 65.2C86.3371 61 86.0371 56.8 85.3372 52.7C84.6372 48.6 83.1371 44.7 82.2371 40.7L82.3372 40.6C86.3372 37.1 90.2371 33.5 94.0371 29.9C93.5371 33.1 93.2371 36.3 93.6371 39.5C94.1371 43.9 95.4371 48.1 96.5371 52.4C97.7371 56.8 99.1371 61 100.737 65.3C101.537 67.4 102.337 69.5 103.137 71.6C104.237 74.4 106.137 78.1 106.137 81.1C106.137 82.2 108.537 82.3 108.637 82C108.837 70.9 108.137 59.6 107.637 48.6C107.437 44.1 106.737 39.8 105.237 35.6C103.937 31.9 102.537 27.7 99.1371 25.4C99.2371 25.3 99.3372 25.1 99.3372 24.9C101.037 23.2 102.837 21.4 104.537 19.6C106.237 17.8 107.937 16 109.637 14.2C109.737 14.2 109.937 14.3 110.037 14.3C110.137 14.4 111.337 22.5 111.737 25C112.337 29.6 113.337 34.1 114.537 38.5C115.537 42.1 116.537 45.6 117.637 49.1C118.337 51.3 119.037 53.5 119.837 55.7C120.537 57.6 121.837 59.7 122.037 61.7C122.137 62.5 122.737 62.7 123.437 62.6C124.237 62.7 125.037 62.4 124.837 61.5C124.237 59 124.637 56 124.537 53.5C124.437 50.8 124.137 48.2 123.737 45.6C122.937 40.4 121.537 35.4 120.137 30.5C118.437 24.7 116.737 16.8 111.537 12.9L111.437 12.8L111.237 12.6C114.937 8.6 118.637 4.4 122.237 0.3H120.437C117.037 4.2 113.537 8.2 110.037 12C109.837 11.9 109.637 11.8 109.337 11.7C100.837 6.2 90.9371 4.5 82.2371 2C79.9371 1.3 77.7372 0.7 75.4372 0H55.4372C62.5372 3.6 69.7371 7.2 77.2371 9.9C82.2371 11.6 87.4371 13 92.8372 13.7Z" transform="translate(217.063 0.100098)" fill="#F2F2F2"/>
<path d="M1.00001 1.9C3.70001 7.7 7.39999 13.5 7.79999 20.1C7.89999 21 9.10001 20.8 9.10001 20C9.10001 19 8.99999 18 8.79999 17.1C9.39999 11.3 8.89999 5.5 7.29999 1.49012e-09H6.10352e-06C0.300006 0.6 0.700006 1.2 1.00001 1.9Z" transform="translate(357.9 0.200195)" fill="#F2F2F2"/>
<path d="M6.60001 0H0C2.3 0.3 4.60001 0.3 6.60001 0Z" transform="translate(326.8 0.100098)" fill="#F2F2F2"/>
<path d="M0.1 -3.05176e-06H0H0.1Z" transform="translate(25.3 213.3)" fill="#EAEAEA"/>
<path d="M3 9.69999C3.7 9.99999 4.4 10.3 5.2 10.7C9 12.5 14.2 14.9 18.8 14.9C20.9 14.9 22.8 14.4 24.3 13.4C24.9 13 25.2 12.4 25.2 11.7C25.2 11.1 24.9 10.6 24.5 10.2C24.5 9.99999 24.4 9.89999 24.3 9.69999C24.1 9.19999 23.6 8.79999 23.1 8.69999C18.7 7.39999 14.2 5.60001 9.9 3.90001C7.7 3.00001 5.5 2.1 3.3 1.3C2.3 0.9 1.2 0.499997 0 -3.05176e-06V2.19999C0.8 2.49999 1.7 2.89999 2.6 3.19999C9.2 5.69999 15.8 8.59999 22.6 10.7C22.5 11 22.6 11.4 23.1 11.7L23.3 11.8C22 12.6 20.5 13 18.9 13C13.8 13 7.7 9.6 3.9 8C2.6 7.4 1.4 6.79999 0.1 6.19999V8.40001C1 8.80001 2 9.29999 3 9.69999Z" transform="translate(0.300049 168.3)" fill="#EAEAEA"/>
<path d="M15.7 120.7C18.9 119.9 21.9 118.6 24.8 116.9H25C25.1 116.9 25.2 116.9 25.3 116.9C25.3 116.9 26.5 116.3 26.8 116.1C27.3 115.8 30.9 113.8 31.6 113.8H31.7C33.2 115.2 24.8 119.9 24.2 120.2C18.4 123.1 12.1 125.2 5.7 126.7C5.6 126.6 5.4 126.5 5.2 126.5C4.4 126.5 3.4 127.5 4.2 128.3C6.8 130.9 8.3 135.5 10.3 138.7C12.1 141.5 14.2 144.2 16.5 146.6C20.3 150.4 25.1 153.2 30.4 153.2C31.3 153.2 32.2 153.1 33.1 153C49.4 150 52.7 132.3 53.5 118.2C55.3 119.8 57.8 119.7 60.1 120.1C63.6 120.7 66.7 122.3 69.9 123.7C72.9 125 75.7 125.7 78.6 125.7C80.9 125.7 83.3 125.3 85.9 124.4C91.6 122.5 96.6 119.5 99.2 113.8C102.5 106.5 101.4 98.1 101.7 90.4C101.7 90.1 101.5 89.7 101.2 89.7C101.1 89.7 101 89.7 100.9 89.8C99.7 90.7 98.2 92.3 96.7 92.9L96.8 92.8C96.6 92.8 84.5 99.1 77.9 100.3C76.3 100.6 74.7 100.8 73.1 100.8C73 100.8 72.8 100.8 72.7 100.8C71.5 100.8 69.2 101 70.2 98.7C70.8 97.3 73.2 96.8 74.6 96.6C79.2 95.8 83.7 96.7 88.2 95C93.1 93.1 96.1 90.4 98.4 85.7C98.6 85.4 98.5 85.1 98.4 84.9C100.1 80 96.6 73.7 94.3 69.6C92 65.4 89.2 61.4 86.1 57.6C84.4 55.5 82.7 53.4 80.8 51.4C78.9 49.3 75 46.6 74.9 43.5C74.9 42.9 74.7 42.7 74.5 42.7C73.9 42.7 72.9 44.1 72.9 44.1C70.7 47.2 70 50.9 68.5 54.3C67.6 56.4 66.3 58.4 65 60.3C62.2 64.5 58.6 70.6 53.7 72.6C53.3 72.8 52.9 72.9 52.5 72.9C51.4 72.9 50.7 72.1 51.3 70.7C51.7 69.6 53.5 68.3 54.3 67.6C56.3 65.7 58.2 63.8 60.1 61.8C62.6 59 65.1 56.1 67.1 52.9C69.2 49.5 70.2 45.9 71.8 42.4C72 41.9 71.8 41.5 71.5 41.3C68.3 37.9 64.6 35.2 60.6 32.8C58.2 31.4 55.8 30 53.6 28.4C51.7 27 48.8 25.3 47.2 23.4L47.3 23.2V23.1C47.1 23.1 45.6 24.3 45.7 24.3C44.7 26.5 44 28.9 43.2 31.1C42.6 32.7 41.9 34.2 41 35.7C40.5 36.5 38.5 39.5 37 39.5C36.9 39.5 36.7 39.5 36.6 39.4C35.3 38.8 40.3 31.3 40.9 30.2C42.9 26.8 43 24.3 43.3 20.6C43.6 20.5 43.8 19.9 43.4 19.6L43.3 19.5C43.2 19 42.9 18.8 42.5 18.8C37.7 14.8 30.9 8.4 31 2C31 1.4 30.7 1.1 30.3 1C30.4 0.900003 30.4 0.8 30.5 0.7C30.7 0.3 30.4 3.05176e-06 30.1 3.05176e-06C29.9 3.05176e-06 29.8 0.0999985 29.6 0.299998C29.2 0.999998 29 1.8 28.7 2.6C26.2 6.5 23.5 10.1 20.5 13.6C17.9 16.7 15.1 20.8 11.8 23.4C11.7 23.3 11.5 23.3 11.4 23.3C10.7 23.3 9.8 23.9 10.3 24.8C11.5 27 12.1 29.5 13.5 31.6C14.7 33.4 16 35.1 17.4 36.7C18.3 37.8 20 39 20.4 40.4C21 42.2 20.8 42.7 20.2 42.7C19.4 42.7 17.9 41.5 17.3 41C13.6 37.4 11.3 32.6 8.3 28.5C8.6 27.8 8 27.2 7.3 27.2C6.9 27.2 6.5 27.4 6.4 28C5.4 31.7 3.1 35.3 1.7 38.9C1.1 40.4 0.5 41.9 -1.19209e-08 43.5V49C0.8 47.1 1.5 45.2 2.2 43.4C2.7 42.2 3.1 40.9 3.6 39.7C4.1 38.3 4.8 37 5.5 35.6C6.2 34.1 7 32.6 7.6 31C8.3 32.1 9 33.2 9.8 34.3C11.6 37.1 13.5 40.1 16.1 42.6C16.7 43.1 18.6 44.9 20.3 44.9C21.1 44.9 21.9 44.5 22.4 43.9C23.2 42.7 22.9 41.2 22.4 40C21.9 38.6 20.8 37.5 19.9 36.6C19.6 36.3 19.3 36 19 35.7C17.5 34 16.3 32.3 15.3 30.8C14.6 29.7 14.1 28.5 13.6 27.3C13.4 26.7 13.1 26.1 12.8 25.5C12.9 25.4 13.1 25.4 13.2 25.3C15.8 23.3 18 20.5 20.1 17.9C20.8 17 21.5 16.1 22.2 15.3C24.9 12.1 27.3 8.9 29.6 5.5C31.1 11.5 36.9 16.9 41.4 20.7V21.1C41.1 24.4 40.9 26.6 39.3 29.4C39.2 29.5 39.1 29.8 38.9 30.1C34.8 36.7 34.2 38.5 34.7 39.9C34.9 40.6 35.3 41.1 35.9 41.4C36.3 41.6 36.7 41.7 37.2 41.7C39.6 41.7 41.8 38.8 42.9 37C43.9 35.4 44.6 33.6 45.2 32.1C45.6 31.1 45.9 30.1 46.3 29.1C46.6 28.1 47 27.1 47.3 26.2C48.4 27.2 49.7 28.1 50.9 28.9C51.5 29.3 52.1 29.7 52.6 30.1C54.5 31.6 56.6 32.8 58.6 33.9C59 34.1 59.4 34.4 59.8 34.6C63.9 37.1 67.1 39.5 69.9 42.3C69.5 43.2 69.2 44.1 68.9 44.9C68 47.3 67.1 49.7 65.7 51.8C63.7 55 61.2 58 58.9 60.4C57.1 62.4 55.3 64.3 53.3 66.1C53.1 66.3 52.9 66.4 52.7 66.6C51.6 67.5 50.3 68.6 49.8 70C49.1 71.8 49.7 73 50 73.5C50.6 74.4 51.7 74.9 52.9 74.9C53.5 74.9 54.2 74.8 54.8 74.5C59.8 72.5 63.3 67.1 66.1 62.8C66.4 62.3 66.7 61.9 67 61.4C68.2 59.5 69.6 57.4 70.6 55.1C71.1 53.9 71.5 52.8 71.9 51.6C72.5 49.8 73.1 48.1 74 46.6C75 48.4 76.6 50 78.1 51.3C78.7 51.8 79.2 52.3 79.6 52.8C81.2 54.6 82.9 56.5 84.8 58.9C88 62.9 90.6 66.8 92.8 70.6C94.8 74.2 98.1 80.2 96.7 84.3C96.6 84.6 96.6 84.9 96.6 85.2C94.5 89.2 91.9 91.5 87.6 93.2C85.2 94.1 82.6 94.2 80 94.3C78.2 94.3 76.3 94.4 74.4 94.7C72.7 95 69.6 95.5 68.5 97.9C67.8 99.6 68.1 100.7 68.5 101.3C69.5 102.8 71.3 102.8 72.4 102.8C72.5 102.8 72.6 102.8 72.7 102.8C72.9 102.8 73 102.8 73.2 102.8C75.1 102.8 76.9 102.5 78.3 102.3C83.5 101.4 91.3 97.8 96.7 95.2C96.9 95.1 97.1 95 97.3 94.9C97.4 94.9 97.5 94.8 97.6 94.8C98.4 94.5 99.1 94 99.8 93.4C99.8 94.3 99.8 95.3 99.8 96.2C99.8 101.9 99.8 107.9 97.5 113C95.5 117.4 91.8 120.3 85.4 122.5C83 123.3 80.9 123.7 78.8 123.7C76.2 123.7 73.7 123.1 70.9 121.9C70.3 121.7 69.8 121.4 69.2 121.1C66.5 119.9 63.7 118.6 60.5 118.1C59.9 118 59.4 117.9 58.8 117.9C57.2 117.7 55.8 117.6 54.8 116.7C54.4 116.4 54 116.2 53.5 116.2C53.2 116.2 53 116.3 52.7 116.4C52 116.7 51.5 117.4 51.5 118.1C50.4 138.4 44.4 148.9 32.7 151C31.9 151.1 31.2 151.2 30.4 151.2C25.1 151.2 20.6 147.9 17.9 145.1C15.8 143 13.9 140.6 11.9 137.5C11.2 136.4 10.6 135.1 9.9 133.7C9 131.9 8.1 130 6.9 128.4C13.9 126.6 19.9 124.5 25 121.9C25.1 121.9 33.3 117.6 33.8 114.5C33.9 113.6 33.6 112.8 33 112.3C32.6 111.9 32.1 111.8 31.6 111.8C30.8 111.8 29.9 112.1 26.4 114.1C26.1 114.2 26 114.3 25.9 114.4C25.8 114.5 25.6 114.5 25.4 114.6C25.1 114.7 24.9 114.8 24.7 115C24.4 115 24.1 115.1 23.8 115.3C21.1 116.9 18.2 118.1 15.3 118.8C13.8 119.2 11.3 119.4 8.3 119.4C5.1 119.4 2.5 119.2 1.4 119C1.1 118.6 0.7 118.1 0.4 117.6V120.8C1.4 121.1 4.8 121.3 8.3 121.3C11 121.3 13.8 121.2 15.7 120.7Z" transform="translate(0 96.3999)" fill="#EAEAEA"/>
<path d="M12.8 94.8635C15.6 94.8635 18.3 94.3635 20.9 93.5635C21 93.6635 21.1 93.6635 21.3 93.6635C21.3 93.6635 22.4 93.3635 22.7 93.3635C23.2 93.2635 26.9 92.1635 27.1 92.4635C28.1 93.8635 20.3 96.0635 19.7 96.1635C14.4 97.3635 1.3 97.8635 1.9 98.7635C3.5 101.364 3.8 105.464 4.8 108.364C5.7 110.964 6.9 113.564 8.3 115.964C11 120.364 15.1 124.164 20.5 124.464C34.3 125.264 40.5 111.564 44 100.264C45.2 101.964 47.2 102.364 49 103.064C51.7 104.264 54 106.164 56.3 107.964C60.3 110.964 64.1 112.064 69.1 111.664C74.1 111.264 78.8 109.864 82 105.664C86.1 100.364 86.9 93.3635 88.7 87.1635C88.8 86.7635 88.5 86.3635 88.1 86.5635C86.9 87.0635 84.1 88.2635 84.1 88.2635C84.6 88.0635 73 90.9635 67.3 90.5635C65.9 90.4635 64.4 90.2635 63 89.9635C62 89.6635 60.1 89.4635 61.4 87.7635C62.2 86.7635 64.2 86.8635 65.4 86.9635C69.3 87.2635 72.8 88.8635 76.8 88.3635C81.1 87.7635 84.2 86.1635 86.9 82.8635C87.1 82.6635 87.1 82.4635 87.1 82.2635C89.4 78.5635 87.9 72.8635 86.8 69.0635C85.7 65.1635 84.3 61.3635 82.5 57.6635C81.5 55.6635 80.5 53.5635 79.4 51.5635C78.2 49.4635 75.6 46.4635 76.2 44.0635C76.6 42.3635 70.8 49.0635 68.9 51.5635C67.7 53.1635 66.3 54.4635 64.9 55.7635C61.8 58.6635 57.7 62.8635 53.3 63.5635C51.8 63.7635 50.8 62.8635 51.7 61.4635C52.2 60.6635 53.9 59.9635 54.8 59.5635C56.8 58.4635 58.7 57.2635 60.6 55.9635C63.2 54.1635 65.8 52.2635 68 50.0635C70.4 47.7635 71.9 45.0635 73.9 42.4635C74.2 42.0635 74.1 41.7635 73.9 41.5635C72 38.1635 69.5 35.2635 66.7 32.5635C65.1 30.9635 63.4 29.3635 61.9 27.5635C60.7 26.0635 58.6 24.0635 57.7 22.2635C57.7 22.2635 57.7 21.3635 57.4 21.4635C56.7 20.1635 54 26.1635 52.9 27.7635C52.1 28.8635 51.2 30.0635 50.2 31.0635C49.6 31.6635 47 33.9635 45.9 33.1635C45 32.4635 50.5 27.2635 51.2 26.5635C53.5 24.1635 55.6 18.8635 55.4 18.4635L55.3 18.3635C55.3 17.9635 55.1 17.7635 54.8 17.6635C51.7 13.4635 47.5 6.96353 48.8 1.76354C48.9 1.26354 48.3 -0.336477 47.9 0.0635228C47.5 0.563523 47.1 1.16353 46.7 1.76354C43.9 4.46354 41 6.86352 37.9 9.06352C35.1 11.0635 27.1 15.0635 27.4 16.1635C27.9 18.2635 27.9 20.2635 28.6 22.3635C29.2 24.0635 29.9 25.6635 30.7 27.2635C31.2 28.3635 32.3 29.6635 32.4 30.8635C32.8 34.6635 30.4 31.6635 29.8 30.7635C27.5 27.0635 24 16.9635 23.5 18.0635C21.9 20.8635 19.4 23.3635 17.6 25.9635C15.8 28.4635 14.1 31.0635 12.3 33.5635C9.5 37.2635 1.6 45.5635 2.5 46.3635C3 46.8635 3.3 48.0635 3.7 48.7635C4.2 49.5635 4.9 50.2635 5.5 50.9635C7.2 52.6635 9.2 54.0635 11.2 55.4635C16.1 58.7635 20.8 62.4635 25.9 65.4635C25.7 65.7635 25.7 66.0635 26.1 66.3635L26.3 66.5635C21.2 68.3635 14.9 62.3635 11.3 59.5635C7.7 56.8635 4.1 53.4635 -1.49013e-09 51.6635V93.6635H0.1C4.4 93.1635 8.5 94.8635 12.8 94.8635Z" transform="translate(0.199951 200.437)" fill="#F2F2F2"/>
<path d="M1.41088 1.3C0.510877 1.6 -0.0891475 2.50001 0.0108525 3.40001C0.110853 4.30001 0.810865 5.09999 1.71086 5.19999C2.71086 5.29999 3.61086 5.49999 4.61086 5.59999V3.59999C3.71086 3.49999 2.81088 3.29999 1.91088 3.19999C2.81088 2.89999 3.71086 2.59999 4.61086 2.19999V1.2207e-05C3.61086 0.500012 2.51088 0.9 1.41088 1.3Z" transform="translate(365.2 321.055)" fill="#EAEAEA"/>
<path d="M0.6 2.89999V0C0.2 0.4 -6.10352e-06 0.899994 -6.10352e-06 1.39999C-6.10352e-06 1.99999 0.2 2.59999 0.6 2.89999Z" transform="translate(369.311 276.855)" fill="#EAEAEA"/>
<path d="M2.47085 170.1C2.67085 169.9 2.77084 169.7 2.87084 169.5C7.37084 159.2 11.3709 148.6 15.1709 137.2C16.9709 131.9 18.5708 127.1 20.2708 122.4C21.0708 120.2 21.8709 118.1 22.6709 116.2C22.9709 115.5 23.3708 114.7 23.7708 114C24.5708 112.4 25.4708 110.7 25.8708 108.8C26.6708 109.2 27.3709 109.6 28.1709 110C34.4709 113.2 41.0708 116.4 48.2708 116.4C49.0708 116.4 49.9708 116.4 50.7708 116.3C51.5708 116.2 52.2709 115.6 52.4709 114.9C52.6709 114.1 52.4708 113.3 51.7708 112.8C49.1708 110.7 46.4708 108.8 43.7708 106.9C39.4708 103.9 35.3708 101 31.7708 97.4C36.9708 85.9 42.8708 73.9 50.7708 63.5C54.5708 58.6 58.7709 53.9 62.4709 49.9C63.6709 48.6 64.8708 47.4 66.2708 46C70.1708 42.1 74.2709 38.1 76.4708 33.3L76.5709 33.2C79.9709 36.8 85.5709 40 91.0709 41.6C91.2709 41.7 91.4709 41.7 91.5709 41.7C92.1709 41.7 92.7709 41.4 93.1709 40.9C93.6709 40.3 93.7708 39.4 93.3708 38.7C90.8708 34.4 87.7709 29.5 82.9708 25.4C85.5708 23.1 88.0708 20.7 90.4708 18.4L91.8708 17.1C92.8708 16.1 94.1708 15.1 95.4708 14C97.1708 12.6 98.9708 11.1 100.471 9.49999C102.571 12.8 106.571 18.8 109.571 22.1C109.971 22.5 110.471 22.7 111.071 22.7C111.371 22.7 111.671 22.6 111.971 22.5C112.771 22.1 113.171 21.2 113.071 20.4C112.671 18.4 112.571 16.4 112.571 14.6C112.571 14.2 112.571 13.7 112.571 13.2C112.571 11 112.571 8.3 111.571 6.1C111.771 6 111.971 5.90001 112.071 5.70001C113.371 4.30001 114.871 3.2 116.371 2.3V-6.10352e-06C114.271 1.19999 112.271 2.6 110.571 4.4C110.471 4 110.071 3.8 109.671 3.8C108.771 3.8 107.571 4.7 108.671 5.6C110.771 7.4 110.371 12.1 110.471 14.7C110.571 16.8 110.671 18.8 111.071 20.8C106.871 16.3 100.871 6.50001 100.771 6.20001C100.571 6.30001 100.471 6.4 100.271 6.6C97.8708 10 93.4708 12.7 90.4708 15.6C87.1708 18.8 83.8708 22.1 80.3708 25C80.1708 25.2 80.0708 25.6 80.3708 25.8C85.2708 29.6 88.6709 34.4 91.6709 39.6C86.8709 38.2 81.4708 35.4 77.9708 31.7C77.9708 31.6 77.8708 31.4 77.7708 31.3C77.6708 31.3 77.5708 31.2 77.4708 31.2L77.2708 30.9C76.9708 30.6 76.7709 30.3 76.5709 30L76.3708 29.9C75.8708 29.9 75.0708 31.6 74.9708 31.9C74.8708 32 74.8708 32.2 74.7708 32.3L74.6709 32.4C71.8709 38.5 65.5709 43.6 60.9709 48.6C56.8709 53 52.8709 57.5 49.1709 62.3C40.9709 73 34.9708 85.3 29.4708 97.5C29.3708 97.7 29.4709 97.9 29.5709 98C35.7709 104.4 43.5709 108.7 50.4709 114.2C49.6709 114.3 48.9709 114.3 48.1709 114.3C39.4709 114.3 31.2709 108.9 23.4708 105.5H23.2708C22.7708 105.5 22.4709 106.4 23.0709 106.7C23.4709 106.9 23.7709 107.1 24.0709 107.2C23.9709 107.3 23.9708 107.4 23.8708 107.6C23.4708 110.2 21.7709 113 20.6709 115.4C19.7709 117.5 18.9709 119.5 18.1709 121.6C16.2709 126.5 14.6708 131.5 12.9708 136.5C9.37085 147.5 5.37085 158.1 0.770854 168.7C0.170853 169 -0.329147 169.6 0.270854 170.2C0.170854 170.3 0.170857 170.5 0.0708566 170.6H2.27085C2.47085 170.4 2.47085 170.2 2.47085 170.1Z" transform="translate(253.44 249.255)" fill="#EAEAEA"/>
<path d="M-1.2207e-05 0H0.0999939H-1.2207e-05Z" transform="translate(354.211 255.355)" fill="#EAEAEA"/>
<path d="M19.8081 21.6C19.4081 21.8 19.2081 22.1 19.0081 22.5H18.8081C16.6081 21.4 14.0081 21.2 11.5081 21.2C11.1081 21.2 10.6081 21.2 10.2081 21.2C9.80812 21.2 9.4081 21.2 9.0081 21.2C8.7081 21.2 8.40811 21.2 8.10811 21.2C5.70811 21.1 3.90812 21 2.20812 20.8H2.0081C1.2081 20.8 0.508116 21.2 0.208116 21.9C-0.191884 22.7 0.00810975 23.6 0.60811 24.2C5.50811 28.8 10.7081 31.6 16.1081 32.4C12.7081 39.1 9.40812 45.9 6.20812 52.6C5.80812 53.5 5.3081 54.4 4.9081 55.3H7.10811C10.9081 47.4 14.7081 39.6 18.6081 31.8C19.0081 31.6 19.1081 31.1 18.9081 30.9C18.8081 30.3 18.2081 29.9 17.6081 29.9C17.2081 29.9 16.8081 30.1 16.6081 30.5V30.6C10.9081 29.8 6.0081 26.8 1.9081 22.8C3.9081 23.1 6.0081 23.2 8.0081 23.2C8.3081 23.2 8.7081 23.2 9.0081 23.2C9.8081 23.2 10.6081 23.2 11.4081 23.2C13.8081 23.2 16.2081 23.3 18.0081 24.4C18.2081 24.5 18.4081 24.6 18.6081 24.6C18.7081 24.6 18.9081 24.6 19.0081 24.5H19.1081C19.3081 24.5 19.6081 24.4 19.8081 24.3C20.0081 24.2 20.1081 24.1 20.3081 24C20.6081 23.9 20.7081 23.6 20.7081 23.3C20.9081 23.3 21.1081 23.2 21.2081 23C24.5081 17.4 27.4081 11.4 29.9081 5.40001V1.2207e-05C26.8081 8.20001 23.5081 15.3 19.8081 21.6Z" transform="translate(339.903 364.555)" fill="#EAEAEA"/>
</svg>
