<svg width="28" height="42" viewBox="0 0 28 42" fill="none" xmlns="http://www.w3.org/2000/svg">
<path d="M14 1.21785e-05C6.26802 1.21785e-05 0 6.50909 0 14.5385C0 17.4323 0.820992 20.6691 2.22115 22.9351L14 42L25.7788 22.9351C27.1783 20.6686 28 17.4323 28 14.5385C28 6.50909 21.732 1.21785e-05 14 1.21785e-05ZM14 7.53847C17.5686 7.53847 20.4615 10.4314 20.4615 14C20.4615 17.5686 17.5686 20.4615 14 20.4615C10.4314 20.4615 7.53846 17.5686 7.53846 14C7.53846 10.4314 10.4314 7.53847 14 7.53847Z" fill="#6CBB81"/>
</svg>
