<svg width="396" height="243" viewBox="0 0 396 243" fill="none" xmlns="http://www.w3.org/2000/svg">
<path opacity="0.9" d="M106.546 213.878C165.389 213.878 213.092 166 213.092 106.939C213.092 47.8782 165.389 0 106.546 0C47.7022 0 0 47.8782 0 106.939C0 166 47.7022 213.878 106.546 213.878Z" transform="translate(9.87402)" fill="#BED388"/>
<path opacity="0.78" d="M37.0032 74.2795C57.4396 74.2795 74.0065 57.6515 74.0065 37.1397C74.0065 16.628 57.4396 7.19628e-06 37.0032 7.19628e-06C16.5669 7.19628e-06 -3.58492e-06 16.628 -3.58492e-06 37.1397C-3.58492e-06 57.6515 16.5669 74.2795 37.0032 74.2795Z" transform="translate(148.255 168.721)" fill="#66B57B"/>
<path d="M10.9248 10.4935C10.9248 12.6157 9.16271 14.3843 6.93077 14.3843C4.69883 14.3843 2.93676 12.7336 2.93676 10.4935C2.93676 4.48035 9.16271 0 18.3254 0C27.958 0 34.7713 6.24891 34.7713 13.9127V37.2576C34.7713 40.441 37.1207 43.0349 40.1749 43.5065C40.4099 43.5065 40.6448 43.7424 40.6448 44.0961V45.0393C40.6448 45.393 40.4099 45.6288 40.0575 45.6288C36.5334 45.5109 33.3617 44.0961 31.0122 41.8559C27.8405 44.9214 22.9068 46.3362 17.3857 46.3362C7.75306 46.3362 -3.58492e-06 42.3275 -3.58492e-06 34.6638C-3.58492e-06 29.1223 4.11146 26.2926 6.69582 24.9956C9.51511 23.5808 13.7441 22.2838 16.9158 20.9869C21.967 18.8646 26.7833 16.8603 26.7833 12.8515V10.4935C26.7833 6.0131 23.6116 2.47598 18.4429 2.47598C14.2139 2.35808 10.9248 6.24891 10.9248 10.4935ZM26.7833 18.9825C24.1989 20.3974 21.1447 21.8122 17.973 23.1092C12.8043 25.2314 7.988 29.7118 7.988 34.7817C7.988 40.6769 11.2772 44.0961 17.3857 44.0961C22.9068 44.0961 26.7833 40.5589 26.7833 35.4891V18.9825Z" transform="translate(185.258 33.0131)" fill="#1D1D1D"/>
<path d="M25.6086 2.59389C25.1387 3.18341 24.6688 3.77293 24.1989 4.36245C24.0815 4.59825 23.7291 4.71616 23.4941 4.48035C21.8495 3.41921 19.5001 2.47598 17.5031 2.47598C12.2169 2.35808 7.98799 6.36681 7.98799 10.9651V45.5109C7.98799 45.9825 7.51812 46.4541 6.93077 46.4541H1.05724C0.469882 46.4541 7.16984e-06 45.9825 7.16984e-06 45.5109V14.1485C7.16984e-06 6.36681 7.75305 0 17.3856 0C20.3224 0 23.0242 0.589519 25.4911 1.65065C25.7261 1.88646 25.8435 2.24018 25.6086 2.59389Z" transform="translate(235.653 33.0131)" fill="#1D1D1D"/>
<path d="M28.1929 64.2455C27.0182 64.4813 25.7261 64.5992 24.5513 64.5992C14.9188 64.5992 7.16571 58.2324 7.16571 50.4507V24.276H0.469875C0.234934 24.276 0 24.0402 0 23.8044V22.3896C0 22.1538 0.234934 21.918 0.469875 21.918H7.28317V3.64285C7.28317 3.28913 7.51812 2.81752 7.87053 2.69961C9.985 2.228 11.982 1.40267 13.8615 0.105728C14.4489 -0.247984 15.2712 0.341536 15.2712 1.04896V21.918H22.6718C22.9068 21.918 23.1417 22.1538 23.1417 22.3896V23.8044C23.1417 24.0402 22.9068 24.276 22.6718 24.276H15.3887V53.752C15.3887 58.3503 19.6176 62.2411 24.9038 62.2411C25.7261 62.2411 26.6658 62.0053 27.6056 61.7695C27.8405 61.6516 28.0755 61.7695 28.1929 62.1232L28.7803 63.7738C28.6628 63.8917 28.5454 64.2455 28.1929 64.2455Z" transform="translate(270.777 14.8681)" fill="#1D1D1D"/>
<path d="M34.7713 33.6026C34.7713 40.7948 26.5484 46.4541 17.3857 46.4541C7.75306 46.4541 -3.58492e-06 40.3231 -3.58492e-06 30.5371V15.917C-3.58492e-06 6.24891 7.75306 0 17.3857 0C26.5484 0 34.7713 5.42358 34.7713 12.8515C34.7713 14.9738 33.0092 16.7424 30.7773 16.7424C28.5454 16.7424 26.7833 14.9738 26.7833 12.8515C26.7833 12.8515 26.7833 10.2576 26.7833 9.90393C26.4309 5.65939 22.4369 2.35808 17.3857 2.35808C11.1597 2.35808 7.988 6.36682 7.988 13.3231V33.0131C7.988 39.7336 11.3946 43.9782 17.3857 43.9782C22.3194 43.9782 26.4309 40.6769 26.7833 36.4323C26.7833 36.0786 26.7833 33.6026 26.7833 33.4847C26.7833 31.3624 28.5454 29.5939 30.7773 29.5939C33.0092 29.7118 34.8888 31.4803 34.7713 33.6026Z" transform="translate(188.195 113.188)" fill="#1D1D1D"/>
<path d="M17.3857 68.6079V69.3153C17.3857 69.7869 17.0332 70.1407 16.5634 70.1407C7.28318 69.7869 -3.58492e-06 63.6559 -3.58492e-06 56.1101V3.64284C-3.58492e-06 3.28913 0.234938 2.81752 0.587349 2.69962C2.70182 2.228 4.69883 1.40267 6.57836 0.105726C7.16571 -0.247986 7.988 0.341537 7.988 1.04896V59.4114C7.988 63.7738 11.8645 67.5468 16.6808 67.7826C17.1507 67.6647 17.3857 68.1363 17.3857 68.6079Z" transform="translate(235.77 89.6192)" fill="#1D1D1D"/>
<path d="M7.988 1.07919V45.2932C7.988 45.8827 7.51813 46.3543 6.93077 46.3543H1.1747C0.587349 46.3543 0.117474 45.8827 0.117474 45.2932L-3.58492e-06 3.55517C-3.58492e-06 3.20146 0.234938 2.72984 0.587349 2.61194C2.70182 2.14032 4.69883 1.315 6.57836 0.0180562C7.16571 -0.0998477 7.988 0.37177 7.988 1.07919Z" transform="translate(262.789 113.17)" fill="#1D1D1D"/>
<path d="M36.2984 14.1485V45.5109C36.2984 45.9825 35.8285 46.4541 35.2412 46.4541H29.3677C28.7803 46.4541 28.3104 45.9825 28.3104 45.5109V10.8472C28.3104 6.2489 24.199 2.35808 18.9128 2.35808H17.5031C12.2169 2.24017 7.98799 6.131 7.98799 10.8472V45.5109C7.98799 45.9825 7.51812 46.4541 6.93077 46.4541H1.05724C0.469882 46.4541 7.16984e-06 45.9825 7.16984e-06 45.5109V14.1485C7.16984e-06 6.36681 7.75305 0 17.3856 0H19.0302C28.5453 0.117904 36.2984 6.36681 36.2984 14.1485Z" transform="translate(286.165 113.188)" fill="#1D1D1D"/>
<path d="M7.988 1.07919V45.2932C7.988 45.8827 7.51813 46.3543 6.93077 46.3543H1.17472C0.587367 46.3543 0.117456 45.8827 0.117456 45.2932L1.43397e-05 3.55517C1.43397e-05 3.20146 0.234956 2.72984 0.587367 2.61194C2.70184 2.14032 4.69881 1.315 6.57834 0.0180562C7.16569 -0.0998477 7.988 0.37177 7.988 1.07919Z" transform="translate(337.97 113.17)" fill="#1D1D1D"/>
<path d="M34.7713 33.6026C34.7713 40.7948 26.5484 46.4541 17.3857 46.4541C7.75307 46.4541 -1.43397e-05 40.3231 -1.43397e-05 30.5371V15.917C-1.43397e-05 6.24891 7.75307 0 17.3857 0C26.5484 0 34.7713 5.42358 34.7713 12.8515C34.7713 14.9738 33.0092 16.7424 30.7773 16.7424C28.5454 16.7424 26.7833 14.9738 26.7833 12.8515C26.7833 12.8515 26.7833 10.2576 26.7833 9.90393C26.4309 5.65939 22.4369 2.35808 17.3857 2.35808C11.1597 2.35808 7.98801 6.36682 7.98801 13.3231V33.0131C7.98801 39.7336 11.3947 43.9782 17.3857 43.9782C22.3194 43.9782 26.4309 40.6769 26.7833 36.4323C26.7833 36.0786 26.7833 33.6026 26.7833 33.4847C26.7833 31.3624 28.5454 29.5939 30.7773 29.5939C32.8918 29.7118 34.7713 31.4803 34.7713 33.6026Z" transform="translate(360.994 113.188)" fill="#1D1D1D"/>
<path d="M4.22893 8.48908C6.56452 8.48908 8.45788 6.58874 8.45788 4.24454C8.45788 1.90034 6.56452 0 4.22893 0C1.89335 0 3.58492e-06 1.90034 3.58492e-06 4.24454C3.58492e-06 6.58874 1.89335 8.48908 4.22893 8.48908Z" transform="translate(262.319 98.4498)" fill="#1D1D1D"/>
<path d="M4.22896 8.48908C6.56454 8.48908 8.45787 6.58874 8.45787 4.24454C8.45787 1.90034 6.56454 0 4.22896 0C1.89338 0 7.16984e-06 1.90034 7.16984e-06 4.24454C7.16984e-06 6.58874 1.89338 8.48908 4.22896 8.48908Z" transform="translate(337.852 98.4498)" fill="#1D1D1D"/>
<path d="M43.8165 48.5922C43.5816 48.7101 43.4641 48.828 43.2292 49.0638C39.94 52.2472 35.946 52.2472 31.952 50.8323C29.8375 50.1249 28.0755 48.828 26.7833 47.0594C25.3737 45.173 25.4911 43.9939 27.2532 42.4612C31.2472 38.8061 36.8858 38.0987 41.4671 40.9284C42.4069 41.5179 43.2292 42.3433 44.2864 43.1686C44.4039 41.9896 44.4039 40.9284 44.5214 39.8673C44.5214 38.3345 44.6388 36.6839 44.5214 35.1511C44.5214 34.7974 44.2864 34.3258 43.934 34.2079C39.1177 31.3782 34.4189 31.7319 29.7201 34.5616C25.0212 37.5092 22.3194 41.8716 22.5544 47.4131C22.6718 50.2428 23.4941 53.1904 24.3164 56.0201C25.7261 60.8542 27.3706 65.5703 29.0152 70.2865C29.1327 70.7581 29.3677 71.2297 29.4851 71.7013C30.3074 74.4131 29.8375 76.1817 27.3707 77.5965C24.4339 79.3651 21.0272 80.1904 17.6206 80.662C15.8585 80.8978 14.8013 79.8367 14.6838 78.0681C14.6838 77.7144 14.5664 77.4786 14.5664 77.1249C13.1567 77.5965 11.7471 78.0681 10.3374 78.4219C9.75006 78.5398 9.04523 78.6577 8.45788 78.6577C7.40064 78.6577 6.46088 78.3039 5.991 77.2428C5.52112 76.1817 5.75606 75.2384 6.34341 74.2952C6.69583 73.7057 7.28318 73.352 7.98801 73.7057C8.69283 74.0594 8.8103 74.7668 8.57536 75.4743C8.45789 75.7101 8.45788 75.828 8.22294 76.2996C9.04524 76.1817 9.75006 76.0638 10.4549 75.828C11.7471 75.4743 12.9218 75.0026 14.2139 74.531C16.3284 73.9415 17.3856 74.7668 17.2682 77.007C17.1507 78.3039 17.2682 78.4219 18.4429 78.0681C20.5574 77.4786 22.5544 76.8891 24.6688 76.1817C25.2562 75.9459 25.8435 75.7101 26.4309 75.3564C27.6056 74.531 27.8405 73.9415 27.3707 72.5267C25.961 68.6358 24.4339 64.745 23.2592 60.7363C22.0845 56.8454 21.1447 52.9546 20.4399 48.9459C19.1477 41.4 24.5514 32.3214 33.949 30.0812C37.3557 29.2559 40.5274 29.4917 43.6991 31.1424C43.8165 31.2603 44.0515 31.2603 44.1689 31.3782C44.1689 31.3782 44.2864 31.3782 44.4039 31.3782C43.5816 23.3607 41.937 15.8149 36.2984 9.56597C33.8315 6.85418 31.0122 4.614 28.0755 2.49173C27.3707 2.02012 27.0182 1.4306 27.4881 0.60527C27.958 -0.220057 28.7803 -0.102154 29.4851 0.369462C38.5304 6.38256 44.6388 14.4 46.166 25.6009C46.5184 28.1948 47.1057 30.6708 47.2232 33.2647C47.3407 36.6839 47.2232 40.221 46.8708 43.6402C46.6358 46.352 46.6358 49.0638 47.3407 51.7756C49.5726 60.7363 49.2202 69.697 47.3407 78.6577C46.0485 84.7887 44.7563 90.9197 42.2894 96.5791C38.8828 104.361 34.3014 111.435 28.3104 117.448C25.7261 120.042 22.4369 121.693 19.1477 123.107C17.6206 123.815 16.6808 124.758 16.3284 126.527C13.979 135.369 11.7471 144.094 9.16271 152.819C7.28318 159.422 4.93377 165.789 2.70183 172.273C2.58436 172.745 2.11447 173.335 1.64459 173.452C0.822296 173.806 0 173.099 0 172.155C0 171.802 0.117467 171.566 0.234938 171.212C5.05123 158.597 8.57535 145.627 11.982 132.54C12.5694 130.064 13.2742 127.588 13.7441 125.23C14.2139 123.107 15.6236 121.693 17.5031 120.985C24.7863 118.273 29.4851 112.85 33.7141 106.719C39.5876 98.2297 42.8768 88.6795 44.7563 78.5398C45.6961 73.8236 46.4009 69.1074 46.4009 64.2734C46.4009 59.4393 45.5786 54.7232 44.4039 50.007C44.2864 49.5354 44.1689 49.0638 44.1689 48.5922C44.0515 48.7101 43.934 48.7101 43.8165 48.5922ZM36.7683 49.1817C38.178 49.2996 39.5876 48.828 40.8798 47.7668C43.1117 46.1162 42.9942 44.7013 40.7623 43.1686C37.3557 40.8105 32.4219 41.0463 29.2502 43.7581C28.1929 44.7013 28.193 44.9371 29.1327 45.9983C31.2472 48.1205 33.7141 49.1817 36.7683 49.1817Z" transform="translate(92.2214 57.993)" fill="#1D1D1D"/>
<path d="M0.117471 60.7327C0.234941 59.7895 0.352412 58.8463 0.469883 58.021C0.822294 55.3092 2.34941 53.1869 4.81629 52.1258C6.57835 51.3004 7.63559 50.1214 8.10547 48.117C9.04524 44.8157 11.0422 42.2218 14.0965 40.4533C15.7411 39.51 17.0332 38.2131 17.973 36.4445C18.7953 35.0297 19.8525 33.7328 21.0272 32.4358C21.6146 31.7284 22.4369 31.1389 23.2592 30.9031C24.4339 30.5493 25.1387 29.8419 25.961 28.8987C27.4881 27.0122 29.0152 25.2437 30.8948 23.7109C32.0695 22.7677 33.7141 22.2961 35.1237 21.5886C36.0635 21.117 37.0032 20.5275 37.8255 19.7022C39.3526 18.1694 40.6448 16.5188 42.0545 15.1039C44.8738 12.2742 48.2804 10.6236 52.3919 10.9773C53.5666 11.0952 54.3889 10.6236 55.3287 9.91616C57.4431 8.38341 59.4401 6.85066 61.5546 5.43581C64.3739 3.66725 67.3107 2.84192 70.7173 3.43144C71.6571 3.54935 72.8318 3.07773 73.7715 2.72402C76.3559 1.89869 78.8228 0.601751 81.4071 0.248039C85.7535 -0.341481 90.1 0.0122317 93.9765 2.48821C95.6211 3.54935 97.3831 3.78516 99.2627 3.78516C101.612 3.78516 103.961 4.02096 106.193 4.9642C108.778 6.14324 110.892 7.79389 111.715 10.7415C112.067 12.1563 113.007 12.8638 114.416 13.0996C118.528 13.6891 120.642 16.283 121.582 20.1738C121.7 20.6454 121.817 20.9991 121.817 21.4707C122.169 23.2393 122.992 24.5362 124.636 25.4795C126.633 26.6585 128.043 28.545 128.983 30.6673C130.157 33.4969 130.98 36.3266 131.45 39.3921C131.567 40.0996 131.802 40.9249 132.272 41.5144C134.856 45.4052 135.209 49.5319 134.269 53.8943C133.916 55.4271 133.564 56.9598 133.094 58.4926C132.859 59.2 132.507 59.5537 131.802 59.4358C131.097 59.3179 130.627 58.8463 130.745 58.1389C130.862 57.0777 131.097 55.8987 131.45 54.9555C132.859 50.593 132.624 46.4664 129.922 42.4576C129.218 41.3965 129.218 39.8638 128.748 38.5668C127.925 35.9729 127.338 33.379 126.281 31.021C125.694 29.724 124.519 28.3092 123.227 27.6017C120.877 26.1869 119.703 24.1825 119.35 21.7066C119.233 21.2349 119.115 20.6454 118.998 20.1738C118.293 17.5799 116.648 15.9293 113.946 15.5756C111.715 15.3397 110.187 14.1607 109.483 11.9205C108.425 8.26551 105.489 7.08647 102.199 6.61485C100.907 6.37904 99.6151 6.37904 98.3229 6.37904C96.2084 6.37904 94.3289 5.78952 92.4494 4.72839C87.9855 2.1345 83.1692 1.89869 78.3529 3.66725C76.7083 4.25677 75.1812 5.0821 73.5366 5.55372C72.4794 5.90743 71.3047 6.14324 70.3649 6.02533C68.0155 5.67162 65.7835 6.02533 63.904 7.20437C61.4371 8.61922 59.0877 10.3878 56.7383 12.0384C55.3287 13.0996 53.8015 13.6891 52.0395 13.5712C48.8678 13.2175 46.2834 14.5144 44.1689 16.6367C42.6418 18.0515 41.3497 19.5843 39.94 21.2349C38.6478 22.7677 37.1207 23.9467 35.1237 24.4183C33.1267 24.89 31.4821 26.1869 30.1899 27.8376C29.1327 29.0166 28.1929 30.3135 27.2532 31.6105C26.6658 32.4358 25.961 32.9074 25.0212 33.1432C23.964 33.4969 22.9068 34.0865 22.2019 34.9118C21.2622 35.855 20.5574 37.152 19.8525 38.331C18.9128 39.9817 17.7381 41.3965 15.976 42.3397C12.9218 43.9904 11.0422 46.5843 10.2199 49.8856C9.75006 51.89 8.57536 53.1869 6.8133 54.0122C3.994 55.1913 2.70182 57.3135 2.81929 60.2611C2.81929 61.9118 3.05424 63.5624 3.17171 65.0952C3.17171 65.5668 3.52412 66.2742 2.70182 66.3921C1.997 66.3921 0.939765 66.9817 0.704824 65.6847C0.469882 64.152 0.234941 62.5013 -4.48115e-07 60.9686C0.11747 60.7327 0.117471 60.7327 0.117471 60.7327Z" transform="translate(18.0972 9.42007)" fill="#1D1D1D"/>
<path d="M34.2347 51.5418C33.5299 51.6597 32.9425 51.7776 32.4727 51.7776C24.1322 53.0746 16.9665 50.7165 10.5057 45.4108C2.16524 38.5724 -0.771525 29.6117 0.16824 19.2361C0.28571 18.175 0.755593 17.5855 1.57789 17.7034C2.63512 17.8213 2.75259 18.6466 2.63512 19.472C2.28271 23.5986 2.51765 27.6073 3.69236 31.4982C4.74959 34.9174 6.39418 37.865 8.86106 40.341C12.8551 44.4676 17.3189 47.8868 23.075 49.0658C26.7166 49.8912 30.4757 49.6554 34.1172 48.83C34.7046 48.7121 34.9395 48.3584 35.057 47.7689C36.3492 40.6947 37.6414 33.5025 37.289 26.1925C37.289 25.3671 37.054 25.0134 36.2317 24.8955C33.06 24.0702 30.5931 22.3016 29.1835 19.2361C28.9485 18.6466 28.5961 18.175 28.3612 17.5855C27.4214 15.2274 26.0118 13.4589 23.7798 12.1619C21.7828 11.1008 20.6081 9.21431 20.1382 6.97413C19.7858 5.20557 19.4334 3.43702 19.081 1.66846C18.9635 0.843129 19.081 0.135713 20.0208 0.0178089C20.9605 -0.100095 21.313 0.371519 21.5479 1.31475C21.9003 3.08331 22.2527 4.73397 22.6051 6.50252C22.9575 8.27108 23.8973 9.56802 25.4244 10.3933C27.6564 11.5724 29.1835 13.4589 30.1232 15.699C30.4757 16.4064 30.8281 17.1139 31.1805 17.9392C32.4727 21.0047 34.9395 22.3016 37.9938 22.8912C39.5209 23.127 39.7558 23.3628 39.8733 24.8955C40.3432 36.0964 38.4637 46.8257 35.292 57.437C33.295 64.1575 30.0058 70.1706 25.7768 75.5942C22.3702 79.9567 18.0238 83.258 13.4424 86.2056C10.6231 88.092 7.56889 89.7427 4.63212 91.3933C3.69236 91.9829 2.87006 91.865 2.51765 91.1575C2.04777 90.4501 2.40018 89.6248 3.33995 89.0353C7.09901 86.6772 10.9755 84.5549 14.6171 81.961C24.4847 75.2405 30.2407 65.5724 33.4124 54.1357C33.7648 53.5462 33.9998 52.7209 34.2347 51.5418Z" transform="translate(2.65771 115.882)" fill="#1D1D1D"/>
<path d="M107.303 26.2373C105.659 25.6478 104.132 25.2941 102.722 24.5867C98.8454 22.7002 96.2611 19.6347 95.7912 15.1544C95.6737 14.329 95.3213 13.8574 94.499 13.5037C92.2671 12.6784 90.2701 11.6172 88.6255 9.84868C88.2731 9.49497 87.8032 9.02335 87.6857 8.55174C87.0983 7.01899 86.0411 6.78318 84.6315 6.66528C80.9899 6.42947 77.7007 5.25043 74.7639 3.12816C73.5892 2.30283 72.532 2.30283 71.2398 2.89235C66.8934 4.89672 62.4295 5.01462 57.9656 3.12816C57.1433 2.77445 56.556 3.01025 55.9686 3.48187C53.1493 5.25043 50.0951 6.42947 46.6885 6.19366C44.6915 6.07575 42.6944 5.60414 40.6974 5.13252C39.9926 5.01462 39.4053 4.89672 38.8179 5.36833C35.7637 7.96222 32.2396 9.61287 28.4805 10.674C27.0709 11.0277 26.1311 11.7351 25.3088 13.0321C22.9594 17.0408 19.5527 19.6347 14.8539 20.1063C13.3268 20.2242 12.1521 21.0496 11.2123 22.2286C9.09785 25.1762 6.39603 27.0627 2.75444 27.2985C2.16709 27.2985 1.6972 27.2985 1.10985 27.2985C0.405027 27.1806 -0.182328 26.7089 0.0526134 26.0015C0.170084 25.5299 0.757437 24.8225 1.22732 24.8225C5.10385 24.9404 7.80568 22.936 9.92015 19.9884C10.8599 18.6915 12.1521 17.984 13.7967 17.7482C14.2666 17.6303 14.7364 17.5124 15.2063 17.5124C18.8479 17.1587 21.4323 15.1544 23.1943 12.0889C24.369 10.0845 26.0136 8.78755 28.2456 8.19803C31.6522 7.25479 34.8239 5.72204 37.5257 3.36396C38.7005 2.30283 39.9926 2.18492 41.5197 2.77444C45.9836 4.4251 50.2126 4.18929 54.324 1.71331C56.0861 0.53427 57.8482 0.416366 59.8452 1.24169C62.8994 2.53864 65.9536 2.42073 69.1253 1.3596C69.9476 1.12379 70.6525 0.770077 71.3573 0.416365C72.7669 -0.173155 74.0591 -0.173154 75.3513 0.652174C75.9386 1.00589 76.526 1.24169 76.9959 1.5954C79.8152 3.59977 82.9869 4.30719 86.3935 4.4251C87.9206 4.543 89.0954 5.13252 89.6827 6.66528C90.3875 8.19803 91.6797 9.25916 93.2068 9.96658C94.2641 10.5561 95.4388 11.0277 96.6135 11.4993C97.6707 11.971 98.3755 12.6784 98.493 13.8574C98.9629 18.8094 101.782 21.6391 106.246 23.0539C106.833 23.2897 107.538 23.4076 108.008 23.7613C108.361 23.9972 108.713 24.7046 108.595 25.1762C108.243 25.5299 107.656 25.8836 107.303 26.2373Z" transform="translate(38.2498 30.7103)" fill="#1D1D1D"/>
<path d="M1.22079 72.9129C0.515966 72.9129 -0.188857 72.3233 0.0460842 71.498C1.92561 64.4238 1.5732 57.1137 2.51297 49.9216C4.04008 38.9565 8.73891 29.76 17.5492 22.6858C24.1276 17.498 31.4107 13.4893 39.1638 10.4238C47.1518 7.35828 55.2573 4.52859 63.3627 1.58099C64.6549 1.10938 66.0646 0.637761 67.3567 0.166145C68.179 -0.0696631 68.8839 -0.187567 69.3537 0.755664C69.7061 1.46309 69.2363 2.17051 68.179 2.52422C61.7181 4.7644 55.1398 6.88667 48.6789 9.24475C41.0433 12.0744 33.5252 15.1399 26.477 19.2666C21.8956 21.9784 17.6667 25.2797 14.0251 29.1705C9.44373 34.1225 6.85938 40.0177 5.68467 46.5024C4.86238 51.1006 4.62744 55.8168 4.15756 60.4151C3.68767 64.0701 3.21779 67.7251 2.63044 71.2622C2.3955 72.4413 1.92561 72.9129 1.22079 72.9129Z" transform="translate(7.12646 11.7421)" fill="#1D1D1D"/>
<path d="M53.934 15.5511C52.5243 15.4332 50.8797 15.3153 49.3526 14.9616C45.5936 14.1362 42.0694 14.8437 38.7803 16.7301C36.1959 18.2629 33.6116 19.6777 30.6748 20.1493C28.7953 20.503 26.7983 20.6209 24.8013 20.7389C22.8043 20.8568 20.9247 20.8568 18.9277 20.7389C16.3434 20.6209 13.994 21.3284 12.3494 23.3327C9.41262 26.752 5.53609 27.4594 1.42461 27.6952C0.60232 27.6952 0.0149675 27.3415 0.0149675 26.5161C-0.102503 25.6908 0.484849 25.2192 1.30714 25.1013C2.59932 24.8655 3.8915 24.8655 5.18368 24.6297C6.94573 24.3939 8.47285 23.5686 9.76503 22.2716C12.4669 19.324 15.756 17.9092 19.75 18.145C22.4519 18.2629 25.0362 18.145 27.738 17.9092C30.4399 17.7913 33.0242 16.7301 35.3736 15.5511C37.6056 14.372 39.8375 13.3109 42.0694 12.3677C44.7713 11.3065 47.708 11.7782 50.5273 12.3677C54.6388 13.0751 58.6328 12.4856 62.1569 10.0096C63.684 8.94846 65.3286 7.88733 66.8557 6.9441C68.6178 5.76506 70.6148 5.05763 72.8467 5.29344C76.8407 5.76506 79.895 3.9965 82.8317 1.63842C83.4191 1.16681 83.889 0.695187 84.4763 0.341475C85.2986 -0.248045 86.2384 -0.0122358 86.7083 0.577284C87.1782 1.28471 86.9432 2.22794 86.1209 2.69955C84.4763 3.76069 82.8318 4.82183 81.1872 5.88296C79.3076 7.1799 77.1932 7.88733 74.8437 7.76942C71.4371 7.53361 68.6178 8.59475 65.916 10.5991C63.5666 12.2498 61.0997 14.0183 58.2804 14.6079C56.9882 15.1974 55.5786 15.3153 53.934 15.5511Z" transform="translate(18.4348 54.248)" fill="#1D1D1D"/>
<path d="M9.4648 12.3855C11.3443 12.6213 13.2239 12.8571 15.1034 13.0929C18.8624 13.5645 21.4468 12.3855 22.9739 8.96628C24.6185 5.31126 27.4378 3.4248 31.3143 2.83528C34.0162 2.48157 36.718 1.65624 39.1849 0.24139C39.7722 -0.112322 40.477 -0.112316 40.8295 0.477203C41.2993 1.18463 41.0644 1.89205 40.3596 2.36366C38.2451 3.77851 35.7782 4.48594 33.1939 5.07546C32.1366 5.31127 31.0794 5.42917 29.9047 5.66498C27.9077 6.13659 26.3806 7.19772 25.5583 9.08418C25.4408 9.31999 25.3233 9.55581 25.2059 9.90952C22.9739 14.272 19.6847 16.0405 14.751 15.451C12.6365 15.2152 10.522 14.8615 8.40756 14.9794C4.88344 15.0973 2.29909 17.8091 2.53403 21.2283C2.6515 22.9969 3.4738 24.2938 4.6485 25.5907C6.05815 27.1235 7.58527 28.6562 9.11239 30.189C11.4618 32.665 12.6365 35.6126 12.1666 39.0318C11.8142 41.272 10.8744 43.3942 9.58227 45.2807C8.05515 47.2851 6.29309 49.1715 4.06115 50.4685C3.12139 51.058 2.41656 51.058 2.06415 50.3506C1.59427 49.5252 2.06415 48.8178 2.76897 48.3462C5.82321 46.4597 8.05515 43.7479 9.34733 40.3287C10.2871 37.6169 9.93468 35.141 8.17262 32.9008C7.11539 31.6038 5.94068 30.4248 4.76597 29.1279C3.82621 28.1846 2.88644 27.2414 2.06415 26.1803C-0.167792 23.3506 -0.637674 20.1672 0.889444 16.9838C2.41656 13.8003 5.23586 12.5034 8.75998 12.3855C8.99492 12.5034 9.22986 12.5034 9.4648 12.3855C9.4648 12.5034 9.4648 12.3855 9.4648 12.3855Z" transform="translate(11.4514 96.0861)" fill="#1D1D1D"/>
<path d="M14.6899 9.49326C15.5122 9.61117 17.0393 9.72907 18.449 10.0828C20.446 10.4365 22.208 10.2007 23.9701 9.25745C24.5575 9.02164 25.0273 8.66794 25.4972 8.31422C28.5515 6.19195 31.8406 6.30985 35.2473 7.48889C37.5967 8.31422 39.9461 9.25745 42.413 8.55003C44.175 8.07841 45.9371 7.25308 47.5817 6.42775C48.7564 5.72033 49.9311 4.7771 50.9883 3.83387C54.8649 0.296754 59.3288 -0.764385 64.38 0.532558C65.0848 0.768366 65.7896 0.76837 66.4945 0.886274C67.3168 1.00418 67.9041 1.47579 67.7866 2.30112C67.6692 3.24435 67.0818 3.48016 66.2595 3.36225C64.8499 3.12645 63.5577 2.89064 62.1481 2.65483C58.9763 1.94741 56.2745 2.89064 53.9251 4.77711C52.5155 5.83824 51.2233 6.89937 49.9311 7.96051C45.5847 11.3797 40.8859 12.0871 35.7172 10.2007C35.3648 10.0828 35.0123 9.96488 34.6599 9.72907C31.9581 8.66793 29.3738 8.78584 26.9069 10.3186C24.5575 11.7334 22.208 12.7946 19.3888 12.4409C18.214 12.323 17.0393 12.0872 15.8646 11.8513C9.16881 10.7902 2.59046 15.3885 2.47298 22.6985C2.47298 24.2313 2.0031 24.7029 1.18081 24.7029C0.241043 24.7029 0.00610209 24.1133 0.00610209 22.5806C-0.228839 14.9168 6.34952 9.13955 14.6899 9.49326Z" transform="translate(5.4043 75.7513)" fill="#1D1D1D"/>
<path d="M55.7031 5.43832C52.7663 4.37718 49.947 5.90993 47.0103 7.9143C43.7211 10.2724 39.8446 10.9798 35.8506 9.80077C35.1457 9.56496 34.4409 9.44705 33.8536 9.21125C30.5644 8.15011 27.5101 8.73963 24.6909 10.5082C22.224 12.0409 19.992 13.8095 17.5251 15.3422C13.0613 18.2898 8.24497 19.8226 2.84132 19.9405C2.25397 19.9405 1.66661 19.9405 1.07926 19.8226C0.256967 19.7047 -0.095444 19.2331 0.0220266 18.4078C0.139497 17.5824 0.726849 17.3466 1.43167 17.3466C4.1335 17.7003 6.83532 17.1108 9.41968 16.2855C13.1787 15.2243 16.3504 13.1021 19.5221 10.8619C20.8143 9.91867 22.1065 8.97543 23.3987 8.26801C26.9228 6.14574 30.5644 5.55622 34.5584 6.61736C35.2632 6.85317 35.968 6.97107 36.5554 7.20688C39.8446 8.26801 42.8988 7.44269 45.7181 5.67413C46.4229 5.20251 47.2452 4.73089 47.95 4.14137C49.7121 2.84443 51.944 2.49072 54.4109 2.84443C55.1157 2.96234 55.8206 2.96234 56.5254 3.08024C58.7573 3.19814 60.6369 2.37282 62.164 0.722162C62.8688 -0.103165 63.5736 -0.221068 64.161 0.368452C64.8658 1.07588 64.5134 1.7833 63.926 2.37281C61.8116 4.61299 59.3447 5.55622 55.7031 5.43832Z" transform="translate(34.8735 47.8542)" fill="#1D1D1D"/>
<path d="M12.9218 13.0644C11.3946 13.0644 10.1025 12.9464 8.69283 13.0644C5.52112 13.3002 3.52412 14.9508 2.70182 18.1342C2.58435 18.6058 2.46688 19.0775 2.46688 19.5491C2.34941 20.3744 1.87953 20.846 1.05724 20.7281C0.234941 20.6102 1.12029e-07 20.1386 1.12029e-07 19.4312C0.234941 15.894 2.34941 11.5316 7.28318 10.9421C9.28018 10.7063 11.3946 10.8242 13.3916 10.8242C14.2139 10.8242 15.1537 10.9421 15.976 10.9421C18.6778 10.9421 21.0272 9.99885 22.7893 7.75868C24.4339 5.6364 26.3134 3.74994 29.0152 3.16042C30.7773 2.80671 32.5394 2.6888 34.3014 2.6888C38.5304 2.6888 42.6418 1.98138 46.5184 0.0949199C46.8708 -0.140888 47.6931 0.0949235 48.0455 0.448635C48.5154 0.920251 48.3979 1.62767 47.8105 2.09928C47.2232 2.453 46.6358 2.80671 45.931 3.16042C42.1719 4.57527 38.1779 5.4006 34.1839 5.16479C30.6598 4.92898 27.4881 5.63641 25.2562 8.70191C22.2019 12.8285 18.0905 13.7718 13.3916 13.4181C13.2742 13.0644 13.0392 13.0644 12.9218 13.0644Z" transform="translate(8.69971 89.5121)" fill="#1D1D1D"/>
<path d="M13.8182 0.00523564C17.2249 -0.112668 20.2791 1.77379 22.8635 4.48558C23.6857 5.31091 23.5683 6.13624 22.9809 7.07947C20.3966 11.0882 16.755 13.0926 12.0562 13.0926C8.06215 12.9747 4.53803 11.5598 1.4838 9.08384C1.24885 8.84803 1.01392 8.61222 0.661505 8.37641C-0.160789 7.43318 -0.27826 6.72575 0.661505 5.78252C4.18562 2.1275 8.29709 0.00523564 13.8182 0.00523564ZM3.12839 6.96156C8.41456 11.7956 17.3423 12.1493 20.749 5.90043C15.2279 -0.348476 6.53503 3.07073 3.12839 6.96156Z" transform="translate(73.9392 94.6716)" fill="#1D1D1D"/>
<path d="M10.3442 44.8186C9.05201 44.8186 8.46465 43.8753 8.93454 43.05C10.1092 41.1635 9.63936 39.395 9.05201 37.5085C7.8773 33.7356 5.99777 30.4343 4.00077 27.0151C1.76883 23.3601 0.124241 19.5871 0.00677048 15.3426C-0.1107 10.0369 1.29895 5.32076 4.35318 0.958312C4.47065 0.840408 4.58812 0.722501 4.7056 0.604597C5.29295 0.015077 5.8803 -0.220725 6.58512 0.25089C7.28995 0.84041 7.17248 1.42993 6.58512 2.13735C4.7056 4.61333 3.64836 7.32512 2.94354 10.3906C1.76883 15.5784 2.82607 20.2945 5.52789 24.8928C7.8773 28.7836 10.2267 32.7924 11.5189 37.2727C12.1062 39.5129 12.5761 41.7531 11.2839 43.8753C11.049 44.2291 10.5791 44.5828 10.3442 44.8186Z" transform="translate(0 102.679)" fill="#1D1D1D"/>
<path d="M26.0335 27C26.0335 27.4716 26.0335 27.8253 26.0335 28.2969C26.0335 29.1223 25.6811 29.5939 24.7413 29.5939C23.919 29.5939 23.5666 29.0044 23.5666 28.2969C23.3317 26.6463 23.3317 24.9956 22.8618 23.4629C22.0395 20.3974 20.16 18.0393 17.4581 16.3886C17.3407 16.3886 17.3407 16.2707 17.2232 16.2707C13.934 14.6201 11.8195 12.1441 10.5274 8.60699C9.23519 4.83406 5.94601 3.18341 2.18695 2.59389C1.71707 2.47598 1.36466 2.47598 0.894779 2.35808C0.189955 2.12227 -0.162453 1.53275 0.0724882 0.94323C0.307429 0.471614 0.894782 -8.99536e-07 1.24719 -8.99536e-07C5.82855 0.353711 9.5876 2.12227 12.0545 6.24891C12.6418 7.19214 13.1117 8.13537 13.4641 9.1965C14.0515 11.083 15.2262 12.3799 16.9882 13.3231C19.2202 14.5022 21.2172 16.1528 22.7443 18.1572C24.8588 20.7511 25.7985 23.6987 26.0335 27Z" transform="translate(124.218 52.8209)" fill="#1D1D1D"/>
<path d="M13.0541 3.59814e-06C14.1113 0.353715 15.0511 0.589523 15.9908 1.17904C17.283 1.88647 18.5752 2.12227 19.9848 1.53275C21.3945 0.94323 22.8041 1.41485 24.0963 2.12227C25.271 2.82969 26.6806 3.30131 27.8554 4.12664C28.3252 4.36245 28.6777 5.06987 28.5602 5.54148C28.4427 6.0131 27.8554 6.48472 27.3855 6.60262C26.7981 6.72053 26.2108 6.48471 25.6234 6.24891C24.8011 5.89519 23.9788 5.30568 23.1565 4.83406C22.2168 4.24454 21.277 3.89083 20.1023 4.36245C18.3402 5.06987 16.6957 4.83406 15.0511 3.77293C13.6414 2.82969 12.4667 2.9476 10.9396 3.65502C8.1203 5.18777 5.06606 6.2489 1.77688 6.36681C0.602176 6.36681 0.0148227 6.131 0.0148227 5.18777C-0.102648 4.36244 0.484709 3.77293 1.54194 3.65502C4.47871 3.53712 7.18053 2.47599 9.76489 1.17904C10.8221 0.707427 11.9968 0.353715 13.0541 3.59814e-06Z" transform="translate(93.3811 142.428)" fill="#1D1D1D"/>
<path d="M10.9067 14.1363C10.7892 16.3765 9.14462 18.3808 7.26509 20.2673C6.44279 21.0926 5.50304 21.5642 4.4458 22.2717C3.74098 22.7433 3.03615 22.7433 2.56626 22.0359C2.09638 21.4463 2.33132 20.621 3.15362 20.1494C4.91568 19.2062 6.32533 17.9092 7.38257 16.2586C8.79221 14.0184 8.67474 11.6603 6.91268 9.65594C5.97292 8.59481 4.91568 7.76948 4.09339 6.82625C2.91868 5.64721 1.86144 4.35027 0.804205 3.05333C0.569264 2.69962 0.334323 2.3459 0.216852 1.99219C-0.13556 1.16686 -0.13556 0.459441 0.804205 0.10573C1.6265 -0.247982 2.09638 0.341532 2.56626 1.04896C3.74097 2.69961 5.03315 4.23236 6.32533 5.76511C7.03015 6.59044 7.85245 7.17996 8.55727 7.88739C10.2019 9.53804 10.7892 11.0708 10.9067 14.1363Z" transform="translate(140.99 94.0995)" fill="#1D1D1D"/>
<path d="M12.3789 16.1974C12.2614 17.3765 12.0264 18.5555 11.909 19.7346C11.7915 20.5599 11.3216 21.1494 10.3819 21.0315C9.44209 20.9136 9.32462 20.0883 9.44209 19.2629C9.91197 17.0228 9.91197 14.9005 9.32462 12.6603C8.73727 10.4201 7.21014 8.88739 5.44808 7.47255C4.03844 6.41141 2.62879 5.23237 1.33661 3.93543C0.74926 3.46381 0.396848 2.63849 0.161907 1.93107C-0.190505 1.22364 0.0444365 0.51622 0.74926 0.162508C1.45408 -0.191204 2.04144 0.044604 2.39385 0.752028C3.33362 2.75639 4.9782 4.05333 6.74026 5.23237C10.6168 7.94416 12.3789 11.5992 12.3789 16.1974Z" transform="translate(140.34 78.7152)" fill="#1D1D1D"/>
<path d="M9.95729 5.35283C7.13799 5.35283 3.96628 4.52751 1.02951 2.75895C0.0897495 2.16943 -0.262659 1.3441 0.207224 0.636674C0.559635 -0.0707496 1.38193 -0.188639 2.20422 0.282977C4.78857 1.81573 7.60787 2.64104 10.6621 2.75895C12.7766 2.75895 14.5386 2.16944 16.0658 0.872496C17.0055 0.165073 18.0628 0.282973 18.4152 1.1083C18.6501 1.81572 18.4152 2.40524 17.8278 2.87686C15.9483 4.64542 13.7163 5.35283 9.95729 5.35283Z" transform="translate(99.6494 151.341)" fill="#1D1D1D"/>
<path d="M12.5694 2.24018C12.3344 8.13537 8.10547 12.6157 2.34941 12.9694C2.11447 12.9694 1.87953 12.9694 1.64459 12.9694C0.822294 12.9694 0.117471 12.7336 4.48115e-07 11.6725C4.48115e-07 10.8472 0.587353 10.4934 1.64459 10.4934C6.22594 10.4934 9.86753 6.95633 10.1025 2.47598C10.1025 2.00436 10.1025 1.65065 10.1025 1.17904C10.2199 0.471616 10.5724 0 11.3946 0C12.2169 0 12.5694 0.471614 12.5694 1.29694C12.5694 1.65065 12.5694 2.00437 12.5694 2.24018Z" transform="translate(20.0942 141.485)" fill="#1D1D1D"/>
<path d="M36.4709 27.9432C36.3534 27.9432 36.2359 27.9432 36.1185 27.9432C35.4137 27.8253 34.9438 27 35.1787 26.2926C35.2962 25.7031 35.4137 25.1135 35.5311 24.524C35.6486 23.8166 36.3534 23.345 37.0582 23.4629C37.7631 23.5808 38.2329 24.2882 38.1155 24.9956C37.998 25.5851 37.8805 26.1747 37.7631 26.7642C37.6456 27.4716 37.0582 27.9432 36.4709 27.9432ZM37.6456 20.869C37.6456 20.869 37.5281 20.869 37.6456 20.869C36.8233 20.869 36.236 20.1616 36.3534 19.4541C36.3534 18.7467 36.4709 17.9214 36.4709 17.3319V16.9782C36.4709 16.2707 37.0582 15.6812 37.7631 15.6812C38.4679 15.6812 39.0552 16.2707 39.0552 16.9782V17.3319C39.0552 18.1572 39.0552 18.8646 38.9378 19.69C38.9378 20.2795 38.3504 20.869 37.6456 20.869ZM37.0582 12.8515C36.4709 12.8515 35.8835 12.4978 35.7661 11.9083C35.5311 11.083 35.2962 10.2576 34.9438 9.55022C34.5914 8.84279 34.9438 8.13537 35.6486 7.78166C36.3534 7.42795 37.0582 7.78166 37.4106 8.48908C37.7631 9.31441 38.1155 10.2576 38.3504 11.2009C38.5854 11.9083 38.1155 12.6157 37.4106 12.8515C37.2932 12.8515 37.1757 12.8515 37.0582 12.8515ZM1.34717 11.3188C0.994762 11.3188 0.524878 11.083 0.289937 10.7293C-0.179946 10.1397 -0.0624742 9.31441 0.524879 8.8428C1.2297 8.25328 2.052 7.78166 2.75682 7.19214C3.34418 6.72052 4.16647 6.95633 4.63635 7.54585C5.10623 8.13537 4.87129 8.9607 4.28394 9.43232C3.57912 9.90393 2.87429 10.3755 2.16947 10.9651C1.81706 11.2009 1.58212 11.3188 1.34717 11.3188ZM8.043 6.95633C7.57312 6.95633 7.10323 6.72052 6.86829 6.2489C6.51588 5.54148 6.75082 4.83406 7.45565 4.48035C8.27794 4.00873 9.10024 3.65502 9.92253 3.30131C10.6274 2.94759 11.3322 3.30131 11.6846 4.00874C12.037 4.71616 11.6846 5.42358 10.9798 5.7773C10.1575 6.13101 9.45264 6.48472 8.63035 6.95633C8.39541 6.83843 8.27794 6.95633 8.043 6.95633ZM33.0642 6.0131C32.7118 6.0131 32.4769 5.89519 32.1245 5.65938C31.5371 5.18777 30.9498 4.71616 30.2449 4.24454C29.6576 3.89083 29.4226 3.0655 29.7751 2.47598C30.1275 1.88646 30.9498 1.65065 31.5371 2.00436C32.3594 2.47598 33.1817 3.0655 33.8865 3.77292C34.4739 4.24454 34.4739 5.06986 34.004 5.65938C33.7691 5.89519 33.4167 6.0131 33.0642 6.0131ZM15.3262 3.77292C14.7388 3.77292 14.2689 3.41922 14.034 2.8297C13.7991 2.12227 14.2689 1.41485 14.9738 1.17904C15.9135 0.943233 16.7358 0.707427 17.6756 0.471619C18.3804 0.353715 19.0852 0.825324 19.2027 1.53275C19.3202 2.24017 18.8503 2.9476 18.1455 3.0655C17.3232 3.18341 16.5009 3.41921 15.6786 3.65502C15.6786 3.77293 15.4436 3.77292 15.3262 3.77292ZM25.8985 2.8297C25.7811 2.8297 25.7811 2.8297 25.6636 2.8297C24.8413 2.71179 24.019 2.59388 23.1967 2.59388C22.4919 2.59388 21.9045 2.00437 21.9045 1.29694C21.9045 0.58952 22.4919 1.79907e-06 23.1967 1.79907e-06C24.1365 1.79907e-06 25.0762 0.117902 26.016 0.235806C26.7208 0.35371 27.1907 1.06114 27.1907 1.76856C27.0732 2.35808 26.6034 2.8297 25.8985 2.8297Z" transform="translate(66.7927 87.7205)" fill="#1D1D1D"/>
<path d="M51.9664 42.0184C51.849 42.0184 51.849 42.0184 51.7315 42.0184C50.7917 41.9005 49.9694 41.7826 49.0297 41.5468C48.3249 41.4289 47.855 40.7215 47.9724 40.014C48.0899 39.3066 48.7947 38.835 49.4996 38.9529C50.3219 39.0708 51.2616 39.3066 52.0839 39.4245C52.7887 39.5424 53.2586 40.2498 53.2586 40.9573C53.1412 41.5468 52.5538 42.0184 51.9664 42.0184ZM44.0959 40.4857C43.9784 40.4857 43.861 40.4857 43.7435 40.4857C42.9212 40.2499 41.9814 40.014 41.1591 39.6603C40.4543 39.4245 40.1019 38.7171 40.3369 38.0097C40.5718 37.3022 41.2766 36.9485 41.9814 37.1843C42.8037 37.4202 43.626 37.6559 44.4483 37.8918C45.1531 38.1276 45.623 38.835 45.3881 39.5424C45.2706 40.014 44.6833 40.4857 44.0959 40.4857ZM36.5778 37.7739C36.4603 37.7739 36.2254 37.7739 36.1079 37.6559C35.2856 37.3022 34.4633 36.9485 33.641 36.4769C32.9362 36.1232 32.7013 35.4158 33.0537 34.7084C33.4061 34.0009 34.1109 33.7651 34.8157 34.1188C35.638 34.4725 36.3429 34.8263 37.1652 35.18C37.87 35.4158 38.1049 36.2411 37.87 36.9485C37.5176 37.5381 37.0477 37.7739 36.5778 37.7739ZM29.4121 34.2367C29.1771 34.2367 28.9422 34.1188 28.7073 34.0009C27.885 33.5293 27.1801 33.0577 26.3579 32.5861C25.7705 32.2324 25.5356 31.407 26.0054 30.6996C26.3579 30.1101 27.1801 29.8743 27.885 30.3459C28.5898 30.8175 29.2946 31.2891 30.1169 31.7608C30.7043 32.1145 30.9392 32.9398 30.5868 33.6472C30.3519 34.0009 29.882 34.2367 29.4121 34.2367ZM22.8337 29.6385C22.5988 29.6385 22.2464 29.5206 22.0114 29.4027C21.3066 28.8132 20.6018 28.2236 19.897 27.6341C19.3096 27.1625 19.3096 26.3372 19.7795 25.7477C20.2494 25.1581 21.0717 25.1581 21.659 25.6298C22.3639 26.2193 22.9512 26.8088 23.656 27.2804C24.2434 27.752 24.3609 28.5774 23.891 29.1669C23.656 29.5206 23.1861 29.6385 22.8337 29.6385ZM16.8427 24.3328C16.4903 24.3328 16.1379 24.2149 15.903 23.9791C15.3156 23.3896 14.6108 22.6821 14.0234 21.9747C13.5536 21.3852 13.5536 20.5599 14.1409 20.0883C14.7283 19.6167 15.5506 19.6166 16.0204 20.2062C16.6078 20.7957 17.1951 21.5031 17.7825 22.0926C18.2524 22.5643 18.2524 23.5075 17.7825 23.9791C17.5476 24.2149 17.1951 24.3328 16.8427 24.3328ZM11.5566 18.3197C11.2041 18.3197 10.7343 18.2018 10.4993 17.8481C9.91197 17.1407 9.32462 16.4333 8.85473 15.7258C8.38485 15.1363 8.50232 14.311 9.08968 13.8394C9.67703 13.3677 10.4993 13.4856 10.9692 14.0752C11.5566 14.7826 12.0264 15.49 12.6138 16.1974C13.0837 16.787 12.9662 17.6123 12.3789 18.0839C12.1439 18.2018 11.7915 18.3197 11.5566 18.3197ZM6.85773 11.835C6.38785 11.835 6.03544 11.5992 5.8005 11.2455C5.33061 10.5381 4.86073 9.71273 4.27338 9.0053C3.92097 8.41578 4.03844 7.59046 4.74326 7.11884C5.33062 6.76513 6.15291 6.88303 6.62279 7.59045C7.09267 8.29787 7.56256 9.1232 8.03244 9.83063C8.38485 10.4201 8.26738 11.2455 7.68003 11.7171C7.32762 11.835 7.09267 11.835 6.85773 11.835ZM2.62879 4.99657C2.15891 4.99657 1.68903 4.76076 1.45409 4.28915C0.984205 3.46382 0.63179 2.75639 0.161908 1.93107C-0.190504 1.22364 0.0444374 0.51622 0.749261 0.162508C1.45408 -0.191204 2.15891 0.044604 2.51132 0.752028C2.9812 1.57736 3.33362 2.28478 3.8035 3.11011C4.15591 3.69963 3.92097 4.52495 3.33362 4.87866C3.09867 4.99657 2.86373 4.99657 2.62879 4.99657Z" transform="translate(48.3604 140.025)" fill="#1D1D1D"/>
<path d="M207.101 3.59814e-06H3.58492e-06V0.943239H207.101V3.59814e-06Z" transform="translate(188.312 176.031)" fill="#1D1D1D"/>
<path d="M5.87353 5.54148H6.8133V8.84279H5.40366V6.72052H0V-3.59814e-06H1.52712V5.54148H4.46389V-3.59814e-06H5.99101V5.54148H5.87353Z" transform="translate(189.135 194.188)" fill="#1D1D1D"/>
<path d="M6.34341 4.83406C6.22594 5.54148 5.87354 6.13101 5.28618 6.48472C4.69883 6.83843 4.11146 7.07424 3.28917 7.07424C2.23193 7.07424 1.52711 6.72053 0.939758 6.13101C0.352405 5.42358 7.16984e-06 4.59825 7.16984e-06 3.65502C7.16984e-06 2.59388 0.352405 1.76856 0.939758 1.06114C1.52711 0.353712 2.34941 7.19628e-06 3.28917 7.19628e-06C4.22893 7.19628e-06 5.05123 0.353712 5.63858 1.06114C6.22594 1.76856 6.46089 2.59389 6.46089 3.77293V3.89082H1.52711C1.52711 4.59825 1.76206 5.06987 1.997 5.42358C2.34942 5.77729 2.70182 6.0131 3.28917 6.0131C3.64158 6.0131 3.994 5.8952 4.22894 5.77729C4.46388 5.54148 4.69882 5.30567 4.81629 4.83406H6.34341ZM4.93377 2.94761C4.93377 2.35809 4.69882 1.88646 4.46388 1.65065C4.11146 1.29694 3.75905 1.17905 3.28917 1.17905C2.81929 1.17905 2.46688 1.29694 2.11446 1.65065C1.76205 2.00437 1.64458 2.35809 1.52711 2.94761H4.93377Z" transform="translate(198.649 194.07)" fill="#1D1D1D"/>
<path d="M1.52711 6.72052H-7.16984e-06V-3.59814e-06H1.52711V2.59388H4.46388V-3.59814e-06H5.991V6.72052H4.46388V3.89083H1.52711V6.72052Z" transform="translate(208.4 194.188)" fill="#1D1D1D"/>
<path d="M5.99101 1.17904H3.75906V6.72052H2.23193V1.17904H0V-3.59814e-06H5.87353V1.17904H5.99101Z" transform="translate(217.328 194.188)" fill="#1D1D1D"/>
<path d="M1.29217 0.117908V1.06114C1.76205 0.353719 2.46688 -3.59814e-06 3.40664 -3.59814e-06C4.34641 -3.59814e-06 5.05124 0.353712 5.6386 0.943232C6.22595 1.65066 6.46089 2.47598 6.46089 3.53711C6.46089 4.59825 6.22595 5.42357 5.6386 6.131C5.05124 6.83842 4.34642 7.07423 3.52412 7.07423C2.58436 7.07423 1.87953 6.72053 1.40965 6.0131V9.31442H3.58492e-06V0.117908H1.29217ZM3.17171 1.06114C2.58435 1.06114 2.11447 1.29695 1.76206 1.65066C1.40965 2.12228 1.29217 2.59389 1.29217 3.41922C1.29217 4.12665 1.40965 4.71617 1.76206 5.18778C2.11447 5.6594 2.58435 5.7773 3.17171 5.7773C3.75906 5.7773 4.22895 5.54149 4.46389 5.18778C4.8163 4.71617 4.93377 4.24454 4.93377 3.53711C4.93377 2.82969 4.8163 2.24017 4.46389 1.76856C4.22895 1.29694 3.75906 1.06114 3.17171 1.06114Z" transform="translate(226.49 194.188)" fill="#1D1D1D"/>
<path d="M1.52713 6.72052H3.58492e-06V-3.59814e-06H5.87353V6.72052H4.34641V1.17904H1.40965V6.72052H1.52713Z" transform="translate(242.348 194.188)" fill="#1D1D1D"/>
<path d="M6.57835 6.72052H5.05123V1.17904H3.05424L2.93676 4.12663C2.93676 4.95196 2.70182 5.65938 2.34941 6.131C1.99699 6.60261 1.52711 6.83843 0.939761 6.83843C0.587349 6.83843 0.234934 6.83842 -7.16984e-06 6.72052V5.54148C0.117463 5.54148 0.234934 5.65939 0.587346 5.65939C1.1747 5.65939 1.52711 5.06988 1.52711 4.00874L1.64459 -3.59814e-06H6.57835V6.72052Z" transform="translate(251.276 194.188)" fill="#1D1D1D"/>
<path d="M0.234938 2.24017C0.352408 0.707424 1.40964 7.19628e-06 3.1717 7.19628e-06C3.994 7.19628e-06 4.69882 0.117904 5.1687 0.471616C5.63858 0.825328 5.87353 1.29695 5.87353 2.00437V5.42358C5.87353 5.65938 5.87354 5.77729 5.99101 5.77729C6.10848 5.77729 6.10848 5.8952 6.22595 5.8952C6.34342 5.8952 6.46089 5.8952 6.57836 5.8952V6.95633C6.22595 7.07424 5.87353 7.07424 5.63859 7.07424C5.05124 7.07424 4.69882 6.83842 4.58135 6.2489C3.99399 6.83842 3.28917 7.07424 2.23193 7.07424C1.52711 7.07424 0.939765 6.83843 0.587353 6.48472C0.234941 6.13101 0 5.65938 0 5.06986C0 4.83405 7.16809e-06 4.71615 0.117478 4.48034C0.234948 4.24453 0.234938 4.12664 0.234938 4.00873C0.234938 3.89083 0.352405 3.77292 0.469875 3.65502C0.587346 3.53711 0.70482 3.41921 0.822291 3.41921C0.939761 3.30131 1.05724 3.30131 1.17471 3.18341C1.40965 3.06551 1.52711 3.0655 1.64458 3.0655C1.76205 3.0655 1.87953 2.94761 2.11447 2.94761C2.34942 2.94761 2.46688 2.9476 2.58435 2.82969C2.70182 2.82969 2.8193 2.82969 3.05424 2.82969C3.52413 2.71179 3.994 2.71178 4.11147 2.71178C4.34641 2.71178 4.46389 2.59388 4.46389 2.47598C4.58136 2.35807 4.58135 2.24018 4.58135 2.00437C4.58135 1.29695 4.11147 0.943224 3.1717 0.943224C2.70182 0.943224 2.34942 1.06114 2.11447 1.17905C1.87953 1.41485 1.76205 1.65065 1.64458 2.12226H0.234938V2.24017ZM4.46389 3.53713C4.34642 3.65503 4.22894 3.65502 4.11147 3.65502C3.994 3.65502 3.87653 3.77293 3.75906 3.77293C3.64159 3.77293 3.52412 3.77293 3.28918 3.77293C3.05424 3.77293 2.93677 3.77293 2.93677 3.77293C2.70182 3.77293 2.58436 3.77292 2.46689 3.89082C2.34942 3.89082 2.23195 3.89083 2.11447 4.00873C1.997 4.00873 1.87953 4.12663 1.76206 4.24454C1.64459 4.36244 1.64459 4.36245 1.52712 4.59825C1.40965 4.71616 1.40964 4.83405 1.40964 5.06986C1.40964 5.42357 1.52712 5.65939 1.76206 5.77729C1.997 5.8952 2.23195 6.0131 2.70183 6.0131C3.40665 6.0131 3.87654 5.77729 4.22895 5.42358C4.46389 5.18777 4.58135 4.83406 4.58135 4.24454V3.53713H4.46389Z" transform="translate(261.379 194.07)" fill="#1D1D1D"/>
<path d="M6.34341 4.24454C6.22594 5.06987 5.87354 5.77729 5.40366 6.24891C4.8163 6.72052 4.11147 6.95634 3.28918 6.95634C2.23195 6.95634 1.52712 6.60262 0.939768 6.0131C0.352415 5.42358 0 4.59825 0 3.53711C0 2.47598 0.352415 1.53275 0.939768 0.943231C1.52712 0.235808 2.34941 -3.59814e-06 3.40664 -3.59814e-06C4.22893 -3.59814e-06 4.93376 0.235811 5.52112 0.707427C6.10847 1.17904 6.34341 1.76856 6.46088 2.47599H5.05124C4.93377 2.00437 4.81629 1.76856 4.58135 1.53275C4.34641 1.29694 3.99401 1.17904 3.6416 1.17904C3.05424 1.17904 2.58435 1.41484 2.34941 1.76856C1.997 2.24017 1.87954 2.82969 1.87954 3.53711C1.87954 4.24454 1.997 4.83406 2.34941 5.30567C2.70182 5.77729 3.05424 5.89519 3.6416 5.89519C4.11148 5.89519 4.46388 5.77729 4.69882 5.54148C4.93377 5.30567 5.16871 4.95196 5.28618 4.36244H6.34341V4.24454Z" transform="translate(270.777 194.188)" fill="#1D1D1D"/>
<path d="M5.991 1.17904H3.75906V6.72052H2.23194V1.17904H7.16984e-06V-3.59814e-06H5.87354V1.17904H5.991Z" transform="translate(279.704 194.188)" fill="#1D1D1D"/>
<path d="M1.87952 6.72052H3.58492e-06V-3.59814e-06H1.52713V4.83406L3.994 -3.59814e-06H5.87353V6.72052H4.34641V1.88647L1.87952 6.72052Z" transform="translate(288.749 194.188)" fill="#1D1D1D"/>
<path d="M4.22893 3.89083C3.52411 4.12664 2.8193 4.24454 2.11448 4.24454C1.40965 4.24454 0.939768 4.12663 0.587357 3.77292C0.234945 3.41921 3.58492e-06 2.94761 3.58492e-06 2.24018V-3.59814e-06H1.52713V1.65066C1.52713 2.47599 1.87954 2.94759 2.70183 2.94759C3.28918 2.94759 3.75906 2.82969 4.34641 2.59388V-3.59814e-06H5.87352V6.72052H4.34641V3.89083H4.22893Z" transform="translate(298.147 194.188)" fill="#1D1D1D"/>
<path d="M6.34341 4.83406C6.22594 5.54148 5.87354 6.13101 5.28618 6.48472C4.69883 6.83843 4.11146 7.07424 3.28917 7.07424C2.23193 7.07424 1.52711 6.72053 0.939758 6.13101C0.352405 5.42358 7.16984e-06 4.59825 7.16984e-06 3.65502C7.16984e-06 2.59388 0.352405 1.76856 0.939758 1.06114C1.52711 0.353712 2.34941 7.19628e-06 3.28917 7.19628e-06C4.22893 7.19628e-06 5.05123 0.353712 5.63858 1.06114C6.22594 1.76856 6.46089 2.59389 6.46089 3.77293V3.89082H1.52711C1.52711 4.59825 1.76204 5.06987 1.99699 5.42358C2.3494 5.77729 2.70182 6.0131 3.28917 6.0131C3.64158 6.0131 3.99402 5.8952 4.22896 5.77729C4.4639 5.54148 4.69884 5.30567 4.81631 4.83406H6.34341ZM4.93375 2.94761C4.93375 2.35809 4.69882 1.88646 4.46388 1.65065C4.11146 1.29694 3.75905 1.17905 3.28917 1.17905C2.81929 1.17905 2.46688 1.29694 2.11446 1.65065C1.76205 2.00437 1.64458 2.35809 1.52711 2.94761H4.93375Z" transform="translate(307.31 194.07)" fill="#1D1D1D"/>
<path d="M6.34342 4.24454C6.22595 5.06987 5.87352 5.77729 5.40363 6.24891C4.81628 6.72052 4.11147 6.95634 3.28918 6.95634C2.23194 6.95634 1.52712 6.60262 0.939765 6.0131C0.352412 5.42358 1.43397e-05 4.59825 1.43397e-05 3.53711C1.43397e-05 2.47598 0.352412 1.53275 0.939765 0.943231C1.52712 0.235808 2.34942 -3.59814e-06 3.40665 -3.59814e-06C4.22895 -3.59814e-06 4.93376 0.235811 5.52111 0.707427C6.10846 1.17904 6.34343 1.76856 6.4609 2.47599H5.05124C4.93377 2.00437 4.8163 1.76856 4.58136 1.53275C4.34642 1.29694 3.99399 1.17904 3.64157 1.17904C3.05422 1.17904 2.58437 1.41484 2.34943 1.76856C1.99701 2.24017 1.87952 2.82969 1.87952 3.53711C1.87952 4.24454 1.99701 4.83406 2.34943 5.30567C2.70184 5.77729 3.05422 5.89519 3.64157 5.89519C4.11146 5.89519 4.4639 5.77729 4.69884 5.54148C4.93378 5.30567 5.16872 4.95196 5.28619 4.36244H6.34342V4.24454Z" transform="translate(316.825 194.188)" fill="#1D1D1D"/>
<path d="M6.22596 6.60261H4.4639L2.3494 3.65501L1.52713 4.59825V6.72052H-7.16984e-06V3.59814e-06H1.52713V2.9476L4.22894 3.59814e-06H5.991L3.40663 2.7118L6.22596 6.60261Z" transform="translate(326.458 194.306)" fill="#1D1D1D"/>
<path d="M3.40664 7.19628e-06C4.46388 7.19628e-06 5.28618 0.353705 5.87353 0.943224C6.46088 1.53274 6.81328 2.47599 6.81328 3.53713C6.81328 4.59826 6.46088 5.54149 5.87353 6.13101C5.28618 6.72053 4.46388 7.07424 3.40664 7.07424C2.34941 7.07424 1.5271 6.72053 0.93975 6.13101C0.352397 5.54149 0 4.59826 0 3.53713C0 2.47599 0.352397 1.65065 0.93975 0.943224C1.5271 0.353705 2.34941 7.19628e-06 3.40664 7.19628e-06ZM4.69882 1.76857C4.34641 1.29695 3.87652 1.17905 3.28916 1.17905C2.70181 1.17905 2.23195 1.41485 1.87954 1.76857C1.52713 2.12228 1.40966 2.8297 1.40966 3.53713C1.40966 4.24455 1.52713 4.83407 1.87954 5.30568C2.23195 5.7773 2.70181 5.8952 3.28916 5.8952C3.87652 5.8952 4.34641 5.6594 4.69882 5.30568C5.05124 4.83407 5.1687 4.24455 5.1687 3.53713C5.28617 2.8297 5.05124 2.24018 4.69882 1.76857Z" transform="translate(335.385 194.07)" fill="#1D1D1D"/>
<path d="M1.87952 9.43231H1.43397e-05V2.71179H1.52712V7.54586L3.99401 2.71179H5.87355V9.43231H4.34641V4.59826L1.87952 9.43231ZM5.05124 -7.19629e-06C4.93377 0.589512 4.81629 1.06114 4.46388 1.41485C4.11147 1.76857 3.6416 1.88646 2.93678 1.88646C2.23196 1.88646 1.76205 1.76857 1.40964 1.41485C1.05723 1.06114 0.822287 0.707416 0.822287 -7.19629e-06H1.52712C1.64459 0.707416 2.11449 0.943228 2.93678 0.943228C3.6416 0.943228 4.11146 0.589512 4.34641 -7.19629e-06H5.05124Z" transform="translate(345.605 191.476)" fill="#1D1D1D"/>
<path d="M2.46688 3.1834L0.117471 -3.59814e-06H1.87953L3.28917 2.00436L4.69882 -3.59814e-06H6.46088L4.22894 3.06551L6.81329 6.60262H5.05123L3.40665 4.12663L1.76205 6.60262H-7.16984e-06L2.46688 3.1834Z" transform="translate(188.43 209.515)" fill="#1D1D1D"/>
<path d="M1.87952 6.72052H3.58492e-06V-3.59814e-06H1.52713V4.83406L3.994 -3.59814e-06H5.87353V6.72052H4.34641V1.88647L1.87952 6.72052Z" transform="translate(198.297 209.515)" fill="#1D1D1D"/>
<path d="M1.29218 0.117908V1.06114C1.76206 0.353719 2.46689 -3.59814e-06 3.40665 -3.59814e-06C4.34642 -3.59814e-06 5.05124 0.353712 5.63859 0.943232C6.22594 1.65066 6.46088 2.47598 6.46088 3.53711C6.46088 4.59825 6.22594 5.42357 5.63859 6.131C5.05124 6.83842 4.34641 7.07423 3.52411 7.07423C2.58435 7.07423 1.87952 6.72053 1.40964 6.0131V9.31442H-3.58492e-06V0.117908H1.29218ZM3.1717 1.06114C2.58435 1.06114 2.11447 1.29695 1.76206 1.65066C1.40964 2.12228 1.29218 2.59389 1.29218 3.41922C1.29218 4.12665 1.40964 4.71617 1.76206 5.18778C2.11447 5.6594 2.58435 5.7773 3.1717 5.7773C3.75905 5.7773 4.22894 5.54149 4.46388 5.18778C4.8163 4.71617 4.93376 4.24454 4.93376 3.53711C4.93376 2.82969 4.8163 2.24017 4.46388 1.76856C4.11147 1.29694 3.64158 1.06114 3.1717 1.06114Z" transform="translate(208.165 209.515)" fill="#1D1D1D"/>
<path d="M6.46088 3.59814e-06L3.99401 6.60261C3.99401 6.72052 3.87653 6.83842 3.87653 6.95633C3.75906 7.19214 3.75905 7.31004 3.75905 7.31004C3.75905 7.42795 3.64159 7.54586 3.64159 7.66376C3.64159 7.78166 3.52411 7.89957 3.52411 8.01748C3.52411 8.13538 3.40665 8.13536 3.28918 8.37117C3.17171 8.48908 3.17171 8.60698 3.05424 8.72489C2.93677 8.84279 2.93677 8.84279 2.8193 8.96069C2.70183 9.0786 2.58436 9.07861 2.46689 9.19651C2.34942 9.31442 2.23194 9.31441 2.11447 9.31441C1.997 9.31441 1.76207 9.31441 1.6446 9.31441C1.40965 9.31441 1.05723 9.31442 0.587349 9.19651V7.89956C0.939761 8.01747 1.1747 8.01748 1.40964 8.01748C1.52711 8.01748 1.6446 8.01748 1.6446 8.01748C1.76207 8.01748 1.76206 7.89956 1.87953 7.89956C1.997 7.78166 1.997 7.78166 2.11447 7.66376C2.11447 7.54586 2.23195 7.54586 2.23195 7.42796C2.23195 7.31005 2.34941 7.19213 2.34941 7.19213C2.34941 7.07423 2.46689 7.07424 2.46689 6.83844C2.46689 6.72053 2.58435 6.60261 2.58435 6.60261L-3.58492e-06 0.117897H1.6446L3.40665 5.06988L5.05124 0.117897H6.46088V3.59814e-06Z" transform="translate(217.562 209.633)" fill="#1D1D1D"/>
<path d="M1.29218 0.117908V1.06114C1.76206 0.353719 2.46689 -3.59814e-06 3.40665 -3.59814e-06C4.34642 -3.59814e-06 5.05123 0.353712 5.63859 0.943232C6.22594 1.65066 6.46088 2.47598 6.46088 3.53711C6.46088 4.59825 6.22594 5.42357 5.63859 6.131C5.05123 6.83842 4.34641 7.07423 3.52411 7.07423C2.58435 7.07423 1.87954 6.72053 1.40965 6.0131V9.31442H-7.16984e-06V0.117908H1.29218ZM3.17171 1.06114C2.58436 1.06114 2.11446 1.29695 1.76205 1.65066C1.40964 2.12228 1.29218 2.59389 1.29218 3.41922C1.29218 4.12665 1.40964 4.71617 1.76205 5.18778C2.11446 5.6594 2.58436 5.7773 3.17171 5.7773C3.75907 5.7773 4.22894 5.54149 4.46388 5.18778C4.81629 4.71617 4.93377 4.24454 4.93377 3.53711C4.93377 2.82969 4.81629 2.24017 4.46388 1.76856C4.22894 1.29694 3.75907 1.06114 3.17171 1.06114Z" transform="translate(227.195 209.515)" fill="#1D1D1D"/>
<path d="M4.58135 1.17904H1.40964V6.72052H0V-3.59814e-06H4.69882V1.17904H4.58135Z" transform="translate(237.297 209.515)" fill="#1D1D1D"/>
<path d="M1.87954 6.72052H0V-3.59814e-06H1.52712V4.83406L3.99399 -3.59814e-06H5.87353V6.72052H4.34641V1.88647L1.87954 6.72052Z" transform="translate(244.933 209.515)" fill="#1D1D1D"/>
<path d="M1.87952 6.72052H3.58492e-06V-3.59814e-06H1.52713V4.83406L3.994 -3.59814e-06H5.87353V6.72052H4.34641V1.88647L1.87952 6.72052Z" transform="translate(254.683 209.515)" fill="#1D1D1D"/>
<path d="M1.87954 6.72052H0V-3.59814e-06H1.52712V4.83406L3.99399 -3.59814e-06H5.87353V6.72052H4.34641V1.88647L1.87954 6.72052Z" transform="translate(270.189 209.515)" fill="#1D1D1D"/>
<path d="M6.22594 6.60261H4.46388L2.34941 3.65501L1.52712 4.59825V6.72052H-3.58492e-06V3.59814e-06H1.52712V2.9476L4.22895 3.59814e-06H5.991L3.28918 2.59389L6.22594 6.60261Z" transform="translate(285.695 209.633)" fill="#1D1D1D"/>
<path d="M3.40665 7.19628e-06C4.46389 7.19628e-06 5.28617 0.353705 5.87353 0.943224C6.46088 1.53274 6.8133 2.47599 6.8133 3.53713C6.8133 4.59826 6.46088 5.54149 5.87353 6.13101C5.28617 6.72053 4.46389 7.07424 3.40665 7.07424C2.34942 7.07424 1.52712 6.72053 0.939765 6.13101C0.352412 5.54149 -3.58492e-06 4.59826 -3.58492e-06 3.53713C-3.58492e-06 2.47599 0.352412 1.65065 0.939765 0.943224C1.64459 0.353705 2.46689 7.19628e-06 3.40665 7.19628e-06ZM4.8163 1.76857C4.46389 1.29695 3.99401 1.17905 3.40665 1.17905C2.8193 1.17905 2.3494 1.41485 1.99699 1.76857C1.64458 2.12228 1.52712 2.8297 1.52712 3.53713C1.52712 4.24455 1.64458 4.83407 1.99699 5.30568C2.3494 5.7773 2.8193 5.8952 3.40665 5.8952C3.99401 5.8952 4.46389 5.6594 4.8163 5.30568C5.16871 4.83407 5.28617 4.24455 5.28617 3.53713C5.28617 2.8297 5.16871 2.24018 4.8163 1.76857Z" transform="translate(294.506 209.397)" fill="#1D1D1D"/>
<path d="M6.34342 4.24454C6.22595 5.06987 5.87352 5.77729 5.40363 6.24891C4.81628 6.72052 4.11147 6.95634 3.28918 6.95634C2.23194 6.95634 1.52712 6.60262 0.939765 6.0131C0.352412 5.42358 1.43397e-05 4.59825 1.43397e-05 3.53711C1.43397e-05 2.47598 0.352412 1.53275 0.939765 0.943231C1.52712 0.235808 2.34942 -3.59814e-06 3.40665 -3.59814e-06C4.22895 -3.59814e-06 4.93376 0.235811 5.52111 0.707427C6.10846 1.17904 6.34343 1.76856 6.4609 2.47599H5.05124C4.93377 2.00437 4.8163 1.76856 4.58136 1.53275C4.34642 1.29694 3.99399 1.17904 3.64157 1.17904C3.05422 1.17904 2.58437 1.41484 2.34943 1.76856C1.99701 2.24017 1.87952 2.82969 1.87952 3.53711C1.87952 4.24454 1.99701 4.83406 2.34943 5.30567C2.70184 5.77729 3.05422 5.89519 3.64157 5.89519C4.11146 5.89519 4.4639 5.77729 4.69884 5.54148C4.93378 5.30567 5.16872 4.95196 5.28619 4.36244H6.34342V4.24454Z" transform="translate(304.491 209.515)" fill="#1D1D1D"/>
<path d="M1.40966 6.72052H0V-3.59814e-06H1.87954L3.75907 5.30567L5.52113 -3.59814e-06H7.40063V6.72052H5.99101V2.24018L4.34643 6.72052H2.81929L1.17471 2.24018V6.72052H1.40966Z" transform="translate(314.241 209.515)" fill="#1D1D1D"/>
<path d="M6.34343 4.83406C6.22596 5.54148 5.87352 6.13101 5.28616 6.48472C4.69881 6.83843 4.11148 7.07424 3.28918 7.07424C2.23195 7.07424 1.52713 6.72053 0.939772 6.13101C0.352419 5.42358 -1.43397e-05 4.59825 -1.43397e-05 3.65502C-1.43397e-05 2.59388 0.352419 1.76856 0.939772 1.06114C1.52713 0.353712 2.34942 7.19628e-06 3.28918 7.19628e-06C4.22895 7.19628e-06 5.05124 0.353712 5.6386 1.06114C6.22595 1.76856 6.46087 2.59389 6.46087 3.77293V3.89082H1.52713C1.52713 4.59825 1.76206 5.06987 1.997 5.42358C2.34941 5.77729 2.70183 6.0131 3.28918 6.0131C3.6416 6.0131 3.99399 5.8952 4.22893 5.77729C4.46388 5.54148 4.69882 5.30567 4.81629 4.83406H6.34343ZM4.93377 2.94761C4.93377 2.35809 4.69883 1.88646 4.46389 1.65065C4.11148 1.29694 3.75907 1.17905 3.28918 1.17905C2.8193 1.17905 2.46689 1.29694 2.11448 1.65065C1.76207 2.00437 1.6446 2.35809 1.52713 2.94761H4.93377Z" transform="translate(325.165 209.397)" fill="#1D1D1D"/>
<path d="M5.991 1.17904H3.75907V6.72052H2.23193V1.17904H-7.16984e-06V-3.59814e-06H5.87352V1.17904H5.991Z" transform="translate(334.093 209.515)" fill="#1D1D1D"/>
<path d="M3.40663 7.19628e-06C4.46387 7.19628e-06 5.28617 0.353705 5.87352 0.943224C6.46088 1.53274 6.81331 2.47599 6.81331 3.53713C6.81331 4.59826 6.46088 5.54149 5.87352 6.13101C5.28617 6.72053 4.46387 7.07424 3.40663 7.07424C2.3494 7.07424 1.52713 6.72053 0.939779 6.13101C0.352426 5.54149 -7.16984e-06 4.59826 -7.16984e-06 3.53713C-7.16984e-06 2.47599 0.352426 1.65065 0.939779 0.943224C1.52713 0.353705 2.3494 7.19628e-06 3.40663 7.19628e-06ZM4.81629 1.76857C4.46388 1.29695 3.99399 1.17905 3.40663 1.17905C2.81928 1.17905 2.34942 1.41485 1.99701 1.76857C1.6446 2.12228 1.52713 2.8297 1.52713 3.53713C1.52713 4.24455 1.6446 4.83407 1.99701 5.30568C2.34942 5.7773 2.81928 5.8952 3.40663 5.8952C3.99399 5.8952 4.46388 5.6594 4.81629 5.30568C5.16871 4.83407 5.28617 4.24455 5.28617 3.53713C5.28617 2.8297 5.05124 2.24018 4.81629 1.76857Z" transform="translate(342.903 209.397)" fill="#1D1D1D"/>
<path d="M6.57836 6.72052H5.05122V1.17904H3.05424L2.93677 4.12663C2.93677 4.95196 2.70182 5.65938 2.34941 6.131C1.997 6.60261 1.5271 6.83843 0.93975 6.83843C0.587339 6.83843 0.234941 6.83842 0 6.72052V5.54148C0.117471 5.54148 0.234941 5.65939 0.587353 5.65939C1.17471 5.65939 1.5271 5.06988 1.5271 4.00874L1.64458 -3.59814e-06H6.57836V6.72052Z" transform="translate(352.419 209.515)" fill="#1D1D1D"/>
<path d="M3.40665 7.19628e-06C4.46388 7.19628e-06 5.28618 0.353705 5.87354 0.943224C6.46089 1.53274 6.81329 2.47599 6.81329 3.53713C6.81329 4.59826 6.46089 5.54149 5.87354 6.13101C5.28618 6.72053 4.46388 7.07424 3.40665 7.07424C2.34941 7.07424 1.52711 6.72053 0.939758 6.13101C0.352405 5.54149 7.16984e-06 4.59826 7.16984e-06 3.53713C7.16984e-06 2.47599 0.352405 1.65065 0.939758 0.943224C1.52711 0.353705 2.34941 7.19628e-06 3.40665 7.19628e-06ZM4.69883 1.76857C4.34642 1.29695 3.87652 1.17905 3.28917 1.17905C2.70182 1.17905 2.23196 1.41485 1.87954 1.76857C1.52713 2.12228 1.40963 2.8297 1.40963 3.53713C1.40963 4.24455 1.52713 4.83407 1.87954 5.30568C2.23196 5.7773 2.70182 5.8952 3.28917 5.8952C3.87652 5.8952 4.34642 5.6594 4.69883 5.30568C5.05124 4.83407 5.16871 4.24455 5.16871 3.53713C5.16871 2.8297 5.05124 2.24018 4.69883 1.76857Z" transform="translate(362.521 209.397)" fill="#1D1D1D"/>
<path d="M4.69884 1.17904H1.52712V6.72052H1.43397e-05V-3.59814e-06H4.69884V1.17904Z" transform="translate(372.624 209.515)" fill="#1D1D1D"/>
<path d="M1.87953 6.72052H-7.16984e-06V-3.59814e-06H1.52713V4.83406L3.99399 -3.59814e-06H5.87352V6.72052H4.34642V1.88647L1.87953 6.72052Z" transform="translate(380.494 209.515)" fill="#1D1D1D"/>
<path d="M1.87954 6.72052H7.16984e-06V-3.59814e-06H1.52711V4.83406L3.994 -3.59814e-06H5.87354V6.72052H4.3464V1.88647L1.87954 6.72052Z" transform="translate(390.127 209.515)" fill="#1D1D1D"/>
</svg>
