<svg width="28" height="28" viewBox="0 0 28 28" fill="none" xmlns="http://www.w3.org/2000/svg">
<path d="M20.9541 15.8771C20.005 15.4712 18.8846 15.7474 18.2292 16.5471L16.2992 18.9049C13.2377 17.2787 10.7213 14.7623 9.09512 11.7007L11.4528 9.7708C12.2534 9.11551 12.5286 7.99517 12.1228 7.04591L9.71348 1.41157C9.26963 0.373547 8.14805 -0.194567 7.04682 0.0607693L1.81061 1.27475C0.745572 1.52169 0.00120858 2.4573 1.70368e-05 3.54964C-0.0157705 17.0861 10.9428 28.016 24.4504 28C25.5435 27.9987 26.4785 27.2535 26.7253 26.1893L27.9392 20.9532C28.1945 19.852 27.6264 18.7304 26.5884 18.2866L20.9541 15.8771ZM25.7483 20.4502L24.5343 25.6862C24.5301 25.7046 24.5198 25.7211 24.505 25.7329C24.4902 25.7447 24.4718 25.7511 24.4529 25.751C12.1596 25.7653 2.23465 15.8285 2.24889 3.54701C2.24907 3.52816 2.25553 3.50991 2.26726 3.49516C2.27899 3.48041 2.29531 3.47 2.31363 3.46559L7.5497 2.25166C7.58917 2.24257 7.62928 2.26283 7.64517 2.29996L10.0544 7.9342C10.0614 7.95088 10.0629 7.96938 10.0586 7.98696C10.0543 8.00454 10.0444 8.02026 10.0305 8.03181L6.29789 11.0872C8.80051 16.4319 11.7706 19.2944 16.9126 21.702L19.9681 17.9693C19.9795 17.9553 19.9952 17.9454 20.0128 17.9411C20.0304 17.9367 20.0489 17.9382 20.0656 17.9453L25.6999 20.3547C25.7179 20.3624 25.7326 20.3761 25.7415 20.3936C25.7503 20.4111 25.7527 20.4311 25.7483 20.4502Z" transform="translate(28) scale(-1 1)" fill="#BFBFBF"/>
</svg>
